<svg width="1774" height="1336" viewBox="0 0 1774 1336" fill="none" xmlns="http://www.w3.org/2000/svg">
<path fill-rule="evenodd" clip-rule="evenodd" d="M581.476 48.9886C533.181 148.167 553.916 223.892 647.787 274.697C648.964 275.325 648.179 277.129 646.898 276.71C613.377 266.042 585.189 251.425 564.166 231.475C494.744 165.687 532.24 60.206 592.485 1.53019C595.492 -1.39837 600.407 0.0920524 601.349 4.17113C618.998 81.0459 764.459 121.654 646.898 231.475C591.491 178.813 551.014 126.151 581.476 48.9886Z" fill="#8A5D3B"/>
<path d="M0 1006.77C0 971.363 8.15813 943.647 24.4744 923.617C40.7907 903.614 62.1796 893.6 88.6936 893.6C105.01 893.6 118.633 898.045 129.589 906.883C140.519 915.747 148.468 925.971 153.436 937.528L141.512 942.339C129.929 918.022 112.227 905.837 88.3798 905.837C65.9188 905.837 47.9552 915.015 34.5152 933.344C21.049 951.622 14.329 976.096 14.329 1006.77C14.329 1038.01 21.1798 1062.7 34.9335 1080.82C48.6612 1098.89 66.4679 1107.91 88.3798 1107.91C102.317 1107.91 114.24 1104.25 124.15 1096.93C134.112 1089.55 141.669 1080.27 146.846 1069.1L159.397 1073.29C144.467 1104.33 120.908 1119.83 88.6936 1119.83C62.1796 1119.83 40.7907 1109.79 24.4744 1089.71C8.15813 1069.63 0 1041.99 0 1006.77Z" fill="#6F4323"/>
<path d="M197.589 1078.1C197.589 1086.47 201.093 1093.66 208.153 1099.64C215.265 1105.58 225.149 1108.54 237.857 1108.54C253.389 1108.54 266.829 1103.51 278.125 1093.47C289.473 1083.43 295.173 1070.54 295.173 1054.78V1027.37C285.472 1030.72 269.757 1034.12 248.002 1037.52C214.376 1042.9 197.589 1056.42 197.589 1078.1ZM183.888 1078.73C183.888 1065 188.908 1053.81 198.949 1045.15C208.99 1036.45 225.227 1030.41 247.688 1027.06C270.202 1023.66 286.021 1020.05 295.173 1016.29V1008.23C295.173 996.309 291.12 986.529 283.04 978.842C275.013 971.18 263.743 967.337 249.257 967.337C239.687 967.337 230.535 969.612 221.75 974.135C213.016 978.606 205.669 984.699 199.681 992.439L190.477 985.536C196.805 977.038 205.146 970.056 215.474 964.617C225.855 959.126 237.02 956.355 248.944 956.355C269.234 956.355 284.243 961.453 294.023 971.625C303.776 981.744 308.665 995.132 308.665 1011.79V1114.5H295.487V1084.06C291.931 1093.63 284.766 1102 274.046 1109.16C263.299 1116.27 250.852 1119.83 236.706 1119.83C220.39 1119.83 207.473 1115.96 198.008 1108.22C188.594 1100.48 183.888 1090.65 183.888 1078.73Z" fill="#6F4323"/>
<path d="M360.604 1114.5V961.375H373.677V988.883H373.991C376.972 980.515 382.463 973.037 390.412 966.395C398.361 959.702 408.611 956.355 421.162 956.355C443.257 956.355 456.88 969.298 462.057 995.158C462.476 992.726 463.678 989.615 465.718 985.849C467.81 982.084 470.791 977.874 474.713 973.194C478.609 968.54 484.074 964.565 491.134 961.27C498.167 958.002 505.986 956.355 514.562 956.355C529.466 956.355 540.344 961.244 547.195 970.997C554.098 980.698 557.549 995.42 557.549 1015.14V1114.5H543.848V1017.23C543.848 1000.91 541.573 988.569 537.049 980.201C532.578 971.834 524.002 967.65 511.32 967.65C498.769 967.65 488.048 972.775 479.21 983.025C470.346 993.275 465.927 1006.56 465.927 1022.87V1114.5H452.226V1017.23C452.226 984.176 441.061 967.65 418.756 967.65C405.63 967.65 394.91 972.619 386.542 982.502C378.175 992.334 373.991 1005.09 373.991 1020.78V1114.5H360.604Z" fill="#6F4323"/>
<path d="M611.59 920.794V896.005H634.6V920.794H611.59ZM616.924 1114.5V961.375H630.103V1114.5H616.924Z" fill="#6F4323"/>
<path d="M693.292 1114.5V890.357H707.099V1114.5H693.292Z" fill="#6F4323"/>
<path d="M764.651 1078.1C764.651 1086.47 768.155 1093.66 775.214 1099.64C782.327 1105.58 792.211 1108.54 804.918 1108.54C820.45 1108.54 833.89 1103.51 845.186 1093.47C856.534 1083.43 862.235 1070.54 862.235 1054.78V1027.37C852.534 1030.72 836.819 1034.12 815.064 1037.52C781.438 1042.9 764.651 1056.42 764.651 1078.1ZM750.949 1078.73C750.949 1065 755.97 1053.81 766.01 1045.15C776.051 1036.45 792.289 1030.41 814.75 1027.06C837.263 1023.66 853.083 1020.05 862.235 1016.29V1008.23C862.235 996.309 858.182 986.529 850.102 978.842C842.075 971.18 830.805 967.337 816.319 967.337C806.749 967.337 797.597 969.612 788.811 974.135C780.078 978.606 772.73 984.699 766.743 992.439L757.538 985.536C763.866 977.038 772.207 970.056 782.536 964.617C792.917 959.126 804.082 956.355 816.005 956.355C836.296 956.355 851.305 961.453 861.084 971.625C870.837 981.744 875.727 995.132 875.727 1011.79V1114.5H862.548V1084.06C858.992 1093.63 851.828 1102 841.107 1109.16C830.36 1116.27 817.914 1119.83 803.768 1119.83C787.452 1119.83 774.535 1115.96 765.069 1108.22C755.656 1100.48 750.949 1090.65 750.949 1078.73Z" fill="#6F4323"/>
<path d="M1010.02 1114.5V899.352H1026.44L1121.3 1053.31L1147.03 1095.15H1148.18C1146.77 1078.83 1146.09 1060.61 1146.09 1040.45V899.352H1160.11V1114.5H1143.37L1046.1 956.878L1022.88 918.702H1021.94C1023.12 937.188 1023.72 956.616 1023.72 976.959V1114.5H1010.02Z" fill="#6F4323"/>
<path d="M1222.48 1078.1C1222.48 1086.47 1225.98 1093.66 1233.04 1099.64C1240.15 1105.58 1250.04 1108.54 1262.75 1108.54C1278.28 1108.54 1291.72 1103.51 1303.01 1093.47C1314.36 1083.43 1320.06 1070.54 1320.06 1054.78V1027.37C1310.36 1030.72 1294.65 1034.12 1272.89 1037.52C1239.27 1042.9 1222.48 1056.42 1222.48 1078.1ZM1208.78 1078.73C1208.78 1065 1213.8 1053.81 1223.84 1045.15C1233.88 1036.45 1250.12 1030.41 1272.58 1027.06C1295.09 1023.66 1310.91 1020.05 1320.06 1016.29V1008.23C1320.06 996.309 1316.01 986.529 1307.93 978.842C1299.9 971.18 1288.63 967.337 1274.15 967.337C1264.58 967.337 1255.42 969.612 1246.64 974.135C1237.91 978.606 1230.56 984.699 1224.57 992.439L1215.37 985.536C1221.69 977.038 1230.04 970.056 1240.36 964.617C1250.74 959.126 1261.91 956.355 1273.83 956.355C1294.12 956.355 1309.13 961.453 1318.91 971.625C1328.66 981.744 1333.55 995.132 1333.55 1011.79V1114.5H1320.38V1084.06C1316.82 1093.63 1309.66 1102 1298.93 1109.16C1288.19 1116.27 1275.74 1119.83 1261.6 1119.83C1245.28 1119.83 1232.36 1115.96 1222.9 1108.22C1213.48 1100.48 1208.78 1090.65 1208.78 1078.73Z" fill="#6F4323"/>
<path d="M1371.48 1087.62L1381.83 1081.66C1393.18 1099.59 1409.44 1108.54 1430.57 1108.54C1443.67 1108.54 1454.31 1105.82 1462.47 1100.38C1470.63 1094.89 1474.71 1087.56 1474.71 1078.41C1474.71 1074.8 1474.19 1071.59 1473.14 1068.79C1472.15 1066.02 1470.16 1063.43 1467.18 1061.05C1464.25 1058.7 1461.77 1056.81 1459.75 1055.4C1457.79 1054.02 1454.16 1052.34 1448.88 1050.38C1443.57 1048.37 1439.78 1046.98 1437.47 1046.2C1435.23 1045.36 1430.73 1043.98 1423.98 1042.02C1417 1039.79 1411.12 1037.7 1406.31 1035.74C1401.55 1033.73 1396.53 1030.98 1391.25 1027.48C1386.02 1024 1382.04 1019.74 1379.32 1014.72C1376.65 1009.64 1375.35 1003.81 1375.35 997.25C1375.35 984.699 1380.47 974.763 1390.72 967.441C1400.97 960.068 1414.26 956.355 1430.57 956.355C1442.5 956.355 1453.27 959.362 1462.89 965.349C1472.57 971.285 1479.68 978.528 1484.23 987.105L1474.71 993.066C1470.32 985.693 1464.25 979.626 1456.51 974.867C1448.77 970.056 1440.12 967.65 1430.57 967.65C1417.81 967.65 1407.69 970.422 1400.24 975.913C1392.76 981.352 1389.05 988.543 1389.05 997.459C1389.05 1007.03 1392.87 1014.48 1400.55 1019.84C1408.22 1025.23 1418.7 1029.73 1432.04 1033.33C1439.78 1035.5 1446.31 1037.6 1451.7 1039.61C1457.06 1041.57 1462.81 1044.29 1468.96 1047.77C1475.15 1051.27 1479.89 1055.61 1483.18 1060.84C1486.45 1066.02 1488.1 1071.88 1488.1 1078.41C1488.1 1090.13 1483.08 1099.96 1473.04 1107.91C1463 1115.86 1448.82 1119.83 1430.57 1119.83C1403.85 1119.83 1384.16 1109.11 1371.48 1087.62Z" fill="#6F4323"/>
<path d="M1529.29 1078.1C1529.29 1086.47 1532.79 1093.66 1539.85 1099.64C1546.96 1105.58 1556.85 1108.54 1569.56 1108.54C1585.09 1108.54 1598.53 1103.51 1609.82 1093.47C1621.17 1083.43 1626.87 1070.54 1626.87 1054.78V1027.37C1617.17 1030.72 1601.46 1034.12 1579.7 1037.52C1546.08 1042.9 1529.29 1056.42 1529.29 1078.1ZM1515.59 1078.73C1515.59 1065 1520.61 1053.81 1530.65 1045.15C1540.69 1036.45 1556.93 1030.41 1579.39 1027.06C1601.9 1023.66 1617.72 1020.05 1626.87 1016.29V1008.23C1626.87 996.309 1622.82 986.529 1614.74 978.842C1606.71 971.18 1595.44 967.337 1580.96 967.337C1571.39 967.337 1562.23 969.612 1553.45 974.135C1544.72 978.606 1537.37 984.699 1531.38 992.439L1522.18 985.536C1528.5 977.038 1536.85 970.056 1547.17 964.617C1557.55 959.126 1568.72 956.355 1580.64 956.355C1600.93 956.355 1615.94 961.453 1625.72 971.625C1635.47 981.744 1640.36 995.132 1640.36 1011.79V1114.5H1627.19V1084.06C1623.63 1093.63 1616.47 1102 1605.74 1109.16C1595 1116.27 1582.55 1119.83 1568.41 1119.83C1552.09 1119.83 1539.17 1115.96 1529.71 1108.22C1520.29 1100.48 1515.59 1090.65 1515.59 1078.73Z" fill="#6F4323"/>
<path d="M1692.3 1114.5V961.375H1705.06V987.941C1707.83 980.201 1713.01 973.037 1720.54 966.395C1728.13 959.702 1738.22 956.355 1750.77 956.355C1759.69 956.355 1767.35 957.819 1773.78 960.747V972.985C1766.59 969.847 1758.93 968.278 1750.77 968.278C1736.81 968.278 1725.8 973.508 1717.72 983.967C1709.69 994.374 1705.69 1007.71 1705.69 1024.03V1114.5H1692.3Z" fill="#6F4323"/>
<path d="M591.861 1327.95C588.514 1327.95 585.507 1327.16 582.866 1325.65C580.199 1324.05 578.16 1321.93 576.695 1319.27C575.283 1316.62 574.604 1313.7 574.604 1310.48C574.604 1307.34 575.336 1304.47 576.8 1301.8C578.317 1299.16 580.382 1297.07 582.971 1295.52C585.612 1294.01 588.566 1293.22 591.861 1293.22C594.842 1293.22 597.614 1293.9 600.124 1295.21C602.634 1296.46 604.621 1298.29 606.086 1300.65L604.412 1301.9C602.948 1299.76 601.117 1298.11 598.973 1296.99C596.803 1295.89 594.424 1295.31 591.861 1295.31C589.142 1295.31 586.632 1295.99 584.331 1297.3C582.03 1298.63 580.199 1300.49 578.892 1302.84C577.558 1305.15 576.905 1307.73 576.905 1310.58C576.905 1313.51 577.558 1316.18 578.892 1318.53C580.199 1320.83 582.03 1322.66 584.331 1323.97C586.632 1325.23 589.168 1325.85 591.966 1325.85C594.528 1325.85 596.908 1325.33 599.078 1324.29C601.222 1323.19 603.079 1321.57 604.621 1319.47L606.295 1320.63C604.752 1322.93 602.686 1324.76 600.124 1326.06C597.614 1327.32 594.842 1327.95 591.861 1327.95Z" fill="#6F4323"/>
<path d="M622.444 1294.06C626.131 1294.06 628.85 1294.87 630.602 1296.46C632.328 1298.01 633.217 1300.07 633.217 1302.64C633.217 1304.47 632.746 1305.98 631.857 1307.24C630.942 1308.49 629.661 1309.49 627.987 1310.17C626.314 1310.87 624.248 1311.21 621.816 1311.21L634.158 1327.11H631.439L619.202 1311.21H615.75V1327.11H613.554V1294.06H622.444ZM621.712 1309.12C624.693 1309.12 626.968 1308.6 628.51 1307.55C630.105 1306.45 630.916 1304.81 630.916 1302.64C630.916 1300.7 630.288 1299.13 629.033 1297.93C627.778 1296.75 625.686 1296.15 622.758 1296.15H615.75V1309.12H621.712Z" fill="#6F4323"/>
<path d="M662.199 1294.06H664.396V1327.11H663.977L642.327 1299.71V1327.11H640.13V1294.06H640.549L662.199 1321.57V1294.06Z" fill="#6F4323"/>
<path d="M683.479 1302.11C683.95 1300.39 684.682 1298.84 685.676 1297.51C686.643 1296.2 687.872 1295.16 689.336 1294.37C690.801 1293.61 692.474 1293.22 694.357 1293.22C696.239 1293.22 697.939 1293.64 699.482 1294.48C700.998 1295.31 702.201 1296.52 703.038 1298.03C703.875 1299.5 704.293 1301.17 704.293 1303.05C704.293 1304.39 704.031 1305.64 703.561 1306.82C703.142 1308.02 702.463 1309.2 701.574 1310.38C700.737 1311.5 699.586 1312.78 698.122 1314.25L687.454 1325.02H704.92V1327.11H682.747V1327.01L696.135 1313.41C697.651 1311.89 698.854 1310.58 699.691 1309.54C700.528 1308.44 701.155 1307.39 701.574 1306.4C701.992 1305.35 702.201 1304.26 702.201 1303.05C702.201 1301.67 701.835 1300.39 701.155 1299.18C700.449 1297.93 699.508 1296.96 698.331 1296.26C697.128 1295.58 695.821 1295.21 694.357 1295.21C692.108 1295.21 690.225 1295.92 688.709 1297.3C687.245 1298.63 686.146 1300.49 685.466 1302.84L683.479 1302.11Z" fill="#6F4323"/>
<path d="M718.783 1296.15H714.077L715.332 1294.06H720.98V1327.11H718.783V1296.15Z" fill="#6F4323"/>
<path d="M745.511 1307.86C747.394 1307.86 749.067 1308.34 750.532 1309.22C752.048 1310.06 753.199 1311.26 753.983 1312.78C754.82 1314.32 755.238 1316 755.238 1317.8C755.238 1319.76 754.768 1321.51 753.879 1323.03C752.963 1324.57 751.734 1325.8 750.218 1326.69C748.675 1327.53 747.002 1327.95 745.197 1327.95C743.236 1327.95 741.484 1327.48 739.968 1326.59C738.425 1325.7 737.248 1324.47 736.412 1322.93C735.627 1321.41 735.261 1319.74 735.261 1317.91C735.261 1316.39 735.523 1314.85 736.098 1313.3C736.726 1311.79 737.667 1310.06 738.922 1308.18L748.858 1293.43L750.636 1294.58L740.909 1309.02C742.295 1308.26 743.838 1307.86 745.511 1307.86ZM745.302 1325.85C746.688 1325.85 747.969 1325.51 749.172 1324.81C750.427 1324.13 751.394 1323.19 752.1 1321.98C752.78 1320.73 753.146 1319.34 753.146 1317.8C753.146 1316.28 752.78 1314.92 752.1 1313.72C751.473 1312.55 750.558 1311.6 749.381 1310.9C748.178 1310.22 746.819 1309.85 745.302 1309.85C743.759 1309.85 742.4 1310.24 741.223 1311C740.02 1311.71 739.079 1312.68 738.399 1313.93C737.693 1315.13 737.353 1316.44 737.353 1317.91C737.353 1319.45 737.693 1320.81 738.399 1321.98C739.157 1323.19 740.125 1324.13 741.328 1324.81C742.504 1325.51 743.838 1325.85 745.302 1325.85Z" fill="#6F4323"/>
<path d="M774.749 1311.84C774.122 1312.26 773.416 1312.62 772.657 1312.89C771.873 1313.17 771.01 1313.3 770.043 1313.3C768.16 1313.3 766.434 1312.86 764.918 1311.94C763.453 1311.06 762.303 1309.85 761.466 1308.39C760.629 1306.87 760.211 1305.2 760.211 1303.37C760.211 1301.43 760.655 1299.68 761.571 1298.14C762.46 1296.54 763.689 1295.31 765.231 1294.48C766.748 1293.64 768.474 1293.22 770.356 1293.22C772.291 1293.22 774.017 1293.69 775.481 1294.58C776.998 1295.5 778.201 1296.73 779.037 1298.24C779.874 1299.79 780.293 1301.46 780.293 1303.26C780.293 1304.81 779.979 1306.35 779.351 1307.87C778.724 1309.41 777.782 1311.08 776.527 1312.89L766.591 1327.63L764.918 1326.48L774.749 1311.84ZM770.252 1311.21C771.716 1311.21 773.023 1310.87 774.226 1310.17C775.481 1309.49 776.423 1308.54 777.05 1307.34C777.73 1306.09 778.096 1304.73 778.096 1303.26C778.096 1301.75 777.73 1300.39 777.05 1299.18C776.344 1297.93 775.403 1296.99 774.226 1296.36C773.023 1295.68 771.716 1295.31 770.252 1295.31C768.787 1295.31 767.454 1295.68 766.277 1296.36C765.074 1297.07 764.133 1298.03 763.453 1299.29C762.747 1300.49 762.407 1301.85 762.407 1303.37C762.407 1304.91 762.721 1306.27 763.349 1307.45C764.029 1308.65 764.97 1309.59 766.173 1310.27C767.349 1310.9 768.709 1311.21 770.252 1311.21Z" fill="#6F4323"/>
<path d="M785.37 1302.11C785.841 1300.39 786.573 1298.84 787.566 1297.51C788.534 1296.2 789.763 1295.16 791.227 1294.37C792.691 1293.61 794.365 1293.22 796.247 1293.22C798.13 1293.22 799.83 1293.64 801.372 1294.48C802.889 1295.31 804.092 1296.52 804.928 1298.03C805.765 1299.5 806.184 1301.17 806.184 1303.05C806.184 1304.39 805.922 1305.64 805.451 1306.82C805.033 1308.02 804.353 1309.2 803.464 1310.38C802.627 1311.5 801.477 1312.78 800.013 1314.25L789.344 1325.02H806.811V1327.11H784.638V1327.01L798.025 1313.41C799.542 1311.89 800.745 1310.58 801.582 1309.54C802.418 1308.44 803.046 1307.39 803.464 1306.4C803.883 1305.35 804.092 1304.26 804.092 1303.05C804.092 1301.67 803.726 1300.39 803.046 1299.18C802.34 1297.93 801.398 1296.96 800.222 1296.26C799.019 1295.58 797.712 1295.21 796.247 1295.21C793.999 1295.21 792.116 1295.92 790.599 1297.3C789.135 1298.63 788.037 1300.49 787.357 1302.84L785.37 1302.11Z" fill="#6F4323"/>
<path d="M837.339 1293.22V1336H835.143V1293.22H837.339Z" fill="#6F4323"/>
<path d="M890.075 1294.06H892.271V1327.11H891.853L870.202 1299.71V1327.11H868.006V1294.06H868.424L890.075 1321.57V1294.06Z" fill="#6F4323"/>
<path d="M911.424 1327.95C909.175 1327.95 907.24 1327.45 905.567 1326.48C903.946 1325.51 902.691 1324.08 901.801 1322.19C900.965 1320.31 900.546 1318.11 900.546 1315.6V1294.06H902.743V1316.13C902.743 1318.09 903.083 1319.84 903.789 1321.36C904.469 1322.82 905.462 1323.95 906.717 1324.7C908.025 1325.49 909.594 1325.85 911.424 1325.85C913.228 1325.85 914.771 1325.49 916.026 1324.7C917.281 1323.87 918.248 1322.72 918.954 1321.25C919.634 1319.79 920 1318.11 920 1316.23V1294.06H922.197V1315.6C922.197 1318.19 921.726 1320.42 920.837 1322.3C920 1324.13 918.745 1325.51 917.072 1326.48C915.451 1327.45 913.568 1327.95 911.424 1327.95Z" fill="#6F4323"/>
<path d="M934.943 1296.15H926.681V1294.06H945.298V1296.15H937.14V1327.11H934.943V1296.15Z" fill="#6F4323"/>
<path d="M958.832 1294.06C962.519 1294.06 965.238 1294.87 966.99 1296.46C968.716 1298.01 969.605 1300.07 969.605 1302.64C969.605 1304.47 969.134 1305.98 968.245 1307.24C967.33 1308.49 966.048 1309.49 964.375 1310.17C962.702 1310.87 960.636 1311.21 958.204 1311.21L970.546 1327.11H967.827L955.589 1311.21H952.138V1327.11H949.941V1294.06H958.832ZM958.1 1309.12C961.08 1309.12 963.355 1308.6 964.898 1307.55C966.493 1306.45 967.304 1304.81 967.304 1302.64C967.304 1300.7 966.676 1299.13 965.421 1297.93C964.166 1296.75 962.074 1296.15 959.145 1296.15H952.138V1309.12H958.1Z" fill="#6F4323"/>
<path d="M976.518 1294.06H978.714V1327.11H976.518V1294.06Z" fill="#6F4323"/>
<path d="M1002.83 1327.95C999.481 1327.95 996.474 1327.16 993.833 1325.65C991.166 1324.05 989.126 1321.93 987.662 1319.27C986.25 1316.62 985.57 1313.7 985.57 1310.48C985.57 1307.34 986.302 1304.47 987.767 1301.8C989.283 1299.16 991.349 1297.07 993.938 1295.52C996.579 1294.01 999.533 1293.22 1002.83 1293.22C1005.81 1293.22 1008.58 1293.9 1011.09 1295.21C1013.6 1296.46 1015.59 1298.29 1017.05 1300.65L1015.38 1301.9C1013.91 1299.76 1012.08 1298.11 1009.94 1296.99C1007.77 1295.89 1005.39 1295.31 1002.83 1295.31C1000.11 1295.31 997.598 1295.99 995.297 1297.3C992.996 1298.63 991.166 1300.49 989.859 1302.84C988.525 1305.15 987.871 1307.73 987.871 1310.58C987.871 1313.51 988.525 1316.18 989.859 1318.53C991.166 1320.83 992.996 1322.66 995.297 1323.97C997.598 1325.23 1000.13 1325.85 1002.93 1325.85C1005.49 1325.85 1007.87 1325.33 1010.04 1324.29C1012.19 1323.19 1014.05 1321.57 1015.59 1319.47L1017.26 1320.63C1015.72 1322.93 1013.65 1324.76 1011.09 1326.06C1008.58 1327.32 1005.81 1327.95 1002.83 1327.95Z" fill="#6F4323"/>
<path d="M1024.52 1294.06H1026.72V1327.11H1024.52V1294.06Z" fill="#6F4323"/>
<path d="M1050.73 1327.95C1047.43 1327.95 1044.48 1327.16 1041.84 1325.65C1039.25 1324.13 1037.23 1322.04 1035.77 1319.37C1034.3 1316.73 1033.57 1313.8 1033.57 1310.58C1033.57 1307.45 1034.3 1304.57 1035.77 1301.9C1037.23 1299.26 1039.25 1297.17 1041.84 1295.63C1044.48 1294.03 1047.4 1293.22 1050.62 1293.22C1053.89 1293.22 1056.82 1294.01 1059.41 1295.52C1062.05 1297.07 1064.11 1299.16 1065.58 1301.8C1067.09 1304.47 1067.88 1307.39 1067.88 1310.58C1067.88 1313.8 1067.15 1316.73 1065.68 1319.37C1064.22 1322.04 1062.15 1324.13 1059.51 1325.65C1056.84 1327.16 1053.92 1327.95 1050.73 1327.95ZM1050.62 1325.85C1053.47 1325.85 1056.01 1325.2 1058.26 1323.87C1060.56 1322.56 1062.34 1320.73 1063.59 1318.43C1064.9 1316.08 1065.58 1313.46 1065.58 1310.58C1065.58 1307.73 1064.9 1305.15 1063.59 1302.84C1062.34 1300.49 1060.56 1298.63 1058.26 1297.3C1055.96 1295.99 1053.39 1295.31 1050.62 1295.31C1047.9 1295.31 1045.39 1296.02 1043.09 1297.41C1040.84 1298.74 1039.06 1300.6 1037.76 1302.95C1036.5 1305.25 1035.87 1307.81 1035.87 1310.58C1035.87 1313.46 1036.5 1316.08 1037.76 1318.43C1039.06 1320.73 1040.84 1322.56 1043.09 1323.87C1045.39 1325.2 1047.9 1325.85 1050.62 1325.85Z" fill="#6F4323"/>
<path d="M1096.71 1294.06H1098.9V1327.11H1098.49L1076.84 1299.71V1327.11H1074.64V1294.06H1075.06L1096.71 1321.57V1294.06Z" fill="#6F4323"/>
<path d="M1107.28 1294.06H1109.48V1327.11H1107.28V1294.06Z" fill="#6F4323"/>
<path d="M1124.81 1327.95C1122.56 1327.95 1120.65 1327.37 1119.06 1326.27C1117.51 1325.17 1116.15 1323.53 1114.98 1321.36L1116.86 1320.31C1117.91 1322.14 1119.06 1323.53 1120.31 1324.5C1121.57 1325.41 1123.03 1325.85 1124.7 1325.85C1125.96 1325.85 1127.06 1325.59 1128.05 1325.02C1129.1 1324.39 1129.88 1323.61 1130.46 1322.61C1131.08 1321.64 1131.4 1320.57 1131.4 1319.37C1131.4 1318.11 1131.08 1317.02 1130.46 1316.02C1129.83 1315.06 1128.94 1314.11 1127.84 1313.2C1126.8 1312.23 1125.04 1310.79 1122.61 1308.91C1121.28 1307.94 1120.23 1307.08 1119.47 1306.3C1118.69 1305.46 1118.11 1304.6 1117.7 1303.68C1117.33 1302.79 1117.17 1301.75 1117.17 1300.54C1117.17 1299.16 1117.49 1297.9 1118.11 1296.78C1118.79 1295.68 1119.71 1294.79 1120.83 1294.16C1122.01 1293.54 1123.34 1293.22 1124.81 1293.22C1126.69 1293.22 1128.29 1293.72 1129.62 1294.69C1130.93 1295.6 1132.18 1296.86 1133.38 1298.45L1131.61 1299.81C1130.56 1298.35 1129.51 1297.28 1128.47 1296.57C1127.42 1295.81 1126.17 1295.42 1124.7 1295.42C1123.58 1295.42 1122.61 1295.68 1121.78 1296.15C1120.99 1296.57 1120.42 1297.17 1120 1297.93C1119.58 1298.71 1119.37 1299.58 1119.37 1300.54C1119.37 1301.8 1119.71 1302.95 1120.42 1304C1121.17 1304.99 1122.35 1306.03 1123.97 1307.13C1126.32 1308.88 1128.16 1310.32 1129.41 1311.42C1130.72 1312.55 1131.76 1313.77 1132.55 1315.08C1133.31 1316.34 1133.7 1317.75 1133.7 1319.27C1133.7 1320.81 1133.31 1322.25 1132.55 1323.55C1131.76 1324.89 1130.72 1325.96 1129.41 1326.8C1128.08 1327.55 1126.53 1327.95 1124.81 1327.95Z" fill="#6F4323"/>
<path d="M1144.84 1296.15H1136.58V1294.06H1155.2V1296.15H1147.04V1327.11H1144.84V1296.15Z" fill="#6F4323"/>
<path d="M1181.29 1327.11L1176.38 1315.92H1160.79L1155.77 1327.11H1153.47L1168.43 1294.06H1168.95L1183.59 1327.11H1181.29ZM1161.73 1313.83H1175.44L1168.64 1298.45L1161.73 1313.83Z" fill="#6F4323"/>
<path d="M277.558 1233.28L270.132 1216.44H246.703L239.173 1233.28H235.721L258.104 1183.6H258.941L281.009 1233.28H277.558ZM248.168 1213.41H268.772L258.522 1190.29L248.168 1213.41Z" fill="#6F4323"/>
<path d="M289.322 1182.45V1233.28H286.185V1182.45H289.322Z" fill="#6F4323"/>
<path d="M301.447 1188.93C300.61 1188.93 299.904 1188.67 299.355 1188.1C298.78 1187.47 298.519 1186.79 298.519 1186C298.519 1185.17 298.78 1184.49 299.355 1183.91C299.983 1183.36 300.663 1183.08 301.447 1183.08C302.205 1183.08 302.859 1183.36 303.434 1183.91C304.062 1184.49 304.376 1185.17 304.376 1186C304.376 1186.79 304.062 1187.47 303.434 1188.1C302.859 1188.67 302.205 1188.93 301.447 1188.93ZM299.878 1196.57H303.016V1233.28H299.878V1196.57Z" fill="#6F4323"/>
<path d="M317.498 1196.57V1204.1C318.805 1201.46 320.636 1199.39 322.937 1197.93C325.29 1196.41 327.879 1195.63 330.677 1195.63C333.814 1195.63 336.272 1196.57 338.103 1198.45C339.985 1200.28 341.267 1202.61 341.973 1205.46C343.149 1202.61 344.901 1200.28 347.202 1198.45C349.555 1196.57 352.327 1195.63 355.465 1195.63C359.779 1195.63 362.995 1197.06 365.087 1199.91C367.231 1202.79 368.33 1206.9 368.33 1212.26V1233.28H365.192V1211.84C365.192 1203 361.845 1198.56 355.151 1198.56C352.641 1198.56 350.444 1199.26 348.562 1200.65C346.731 1202.06 345.319 1203.94 344.274 1206.3C343.28 1208.6 342.809 1211.11 342.809 1213.83V1233.28H339.671V1212.78C339.671 1203.31 336.534 1198.56 330.258 1198.56C327.879 1198.56 325.709 1199.24 323.774 1200.54C321.812 1201.88 320.27 1203.73 319.172 1206.09C318.047 1208.39 317.498 1211.08 317.498 1214.14V1233.28H314.36V1196.57H317.498Z" fill="#6F4323"/>
<path d="M395.862 1234.12C392.018 1234.12 388.671 1233.28 385.821 1231.61C383.023 1229.93 380.853 1227.63 379.337 1224.7C377.872 1221.72 377.14 1218.4 377.14 1214.77C377.14 1211.58 377.872 1208.49 379.337 1205.56C380.853 1202.63 383.023 1200.28 385.821 1198.45C388.671 1196.57 391.992 1195.63 395.757 1195.63C399.235 1195.63 402.399 1196.46 405.275 1198.14C408.125 1199.76 410.4 1202.01 412.074 1204.94C413.747 1207.86 414.584 1211.16 414.584 1214.77V1215.19H380.382C380.382 1218.32 381.036 1221.12 382.37 1223.55C383.677 1225.93 385.507 1227.81 387.808 1229.2C390.162 1230.53 392.855 1231.19 395.862 1231.19C399.418 1231.19 402.373 1230.4 404.752 1228.78C407.106 1227.11 409.093 1224.78 410.714 1221.77L413.329 1223.13C411.655 1226.64 409.302 1229.36 406.321 1231.29C403.314 1233.18 399.836 1234.12 395.862 1234.12ZM411.028 1212.36C410.662 1209.38 409.72 1206.87 408.204 1204.83C406.74 1202.74 404.883 1201.17 402.66 1200.12C400.49 1199.08 398.189 1198.56 395.757 1198.56C393.247 1198.56 390.946 1199.08 388.854 1200.12C386.763 1201.17 384.984 1202.74 383.52 1204.83C382.056 1206.87 381.062 1209.38 380.592 1212.36H411.028Z" fill="#6F4323"/>
<path d="M427.126 1196.57V1204.62C428.851 1201.64 430.995 1199.39 433.506 1197.93C436.016 1196.41 438.761 1195.63 441.768 1195.63C446.161 1195.63 449.534 1197.09 451.914 1200.02C454.267 1202.95 455.47 1207.24 455.47 1212.88V1233.28H452.332V1213.2C452.332 1208.39 451.443 1204.73 449.717 1202.22C447.965 1199.71 445.168 1198.45 441.35 1198.45C438.761 1198.45 436.382 1199.16 434.238 1200.54C432.067 1201.88 430.316 1203.73 429.008 1206.09C427.753 1208.39 427.126 1211 427.126 1213.93V1233.28H423.988V1196.57H427.126Z" fill="#6F4323"/>
<path d="M469.501 1199.29H462.389V1196.57H469.501V1182.76H472.639V1196.57H480.901V1199.29H472.639V1233.28H469.501V1199.29Z" fill="#6F4323"/>
<path d="M503.035 1234.12C499.401 1234.12 496.159 1233.25 493.308 1231.5C490.432 1229.7 488.21 1227.32 486.615 1224.39C484.993 1221.41 484.209 1218.22 484.209 1214.87C484.209 1211.47 484.993 1208.28 486.615 1205.35C488.21 1202.43 490.432 1200.1 493.308 1198.35C496.237 1196.54 499.505 1195.63 503.14 1195.63C506.696 1195.63 509.834 1196.52 512.553 1198.24C515.325 1199.91 517.495 1202.37 519.038 1205.56V1196.57H522.176V1233.28H519.038V1224.7C517.495 1227.63 515.325 1229.93 512.553 1231.61C509.834 1233.28 506.644 1234.12 503.035 1234.12ZM503.245 1231.29C506.016 1231.29 508.631 1230.66 511.089 1229.41C513.599 1228.1 515.586 1226.22 517.051 1223.76C518.515 1221.33 519.247 1218.43 519.247 1215.08C519.247 1212.23 518.567 1209.54 517.26 1207.03C516.005 1204.46 514.148 1202.4 511.717 1200.86C509.259 1199.34 506.435 1198.56 503.245 1198.56C500.107 1198.56 497.309 1199.34 494.877 1200.86C492.498 1202.4 490.641 1204.41 489.334 1206.92C488.079 1209.43 487.451 1212.13 487.451 1214.98C487.451 1217.9 488.105 1220.62 489.439 1223.13C490.824 1225.64 492.707 1227.63 495.086 1229.1C497.518 1230.56 500.238 1231.29 503.245 1231.29Z" fill="#6F4323"/>
<path d="M536.821 1196.57V1204.62C538.547 1201.64 540.691 1199.39 543.201 1197.93C545.711 1196.41 548.457 1195.63 551.464 1195.63C555.856 1195.63 559.23 1197.09 561.609 1200.02C563.962 1202.95 565.165 1207.24 565.165 1212.88V1233.28H562.027V1213.2C562.027 1208.39 561.138 1204.73 559.413 1202.22C557.661 1199.71 554.863 1198.45 551.045 1198.45C548.457 1198.45 546.077 1199.16 543.933 1200.54C541.763 1201.88 540.011 1203.73 538.703 1206.09C537.448 1208.39 536.821 1211 536.821 1213.93V1233.28H533.683V1196.57H536.821Z" fill="#6F4323"/>
<path d="M592.756 1234.12C589.122 1234.12 585.879 1233.25 583.029 1231.5C580.153 1229.7 577.93 1227.32 576.335 1224.39C574.714 1221.41 573.93 1218.22 573.93 1214.87C573.93 1211.47 574.714 1208.28 576.335 1205.35C577.93 1202.43 580.153 1200.1 583.029 1198.35C585.958 1196.54 589.226 1195.63 592.861 1195.63C596.417 1195.63 599.555 1196.52 602.274 1198.24C605.046 1199.91 607.216 1202.37 608.759 1205.56V1182.45H611.896V1233.28H608.759V1224.7C607.216 1227.63 605.046 1229.93 602.274 1231.61C599.555 1233.28 596.365 1234.12 592.756 1234.12ZM592.965 1231.29C595.737 1231.29 598.352 1230.66 600.81 1229.41C603.32 1228.1 605.307 1226.22 606.771 1223.76C608.236 1221.33 608.968 1218.43 608.968 1215.08C608.968 1212.23 608.288 1209.54 606.981 1207.03C605.726 1204.46 603.869 1202.4 601.437 1200.86C598.979 1199.34 596.155 1198.56 592.965 1198.56C589.828 1198.56 587.03 1199.34 584.598 1200.86C582.219 1202.4 580.362 1204.41 579.055 1206.92C577.8 1209.43 577.172 1212.13 577.172 1214.98C577.172 1217.9 577.826 1220.62 579.159 1223.13C580.545 1225.64 582.428 1227.63 584.807 1229.1C587.239 1230.56 589.958 1231.29 592.965 1231.29Z" fill="#6F4323"/>
<path d="M640.452 1234.22C636.739 1234.22 633.445 1233.33 630.516 1231.61C627.64 1229.88 625.417 1227.53 623.822 1224.6C622.201 1221.62 621.417 1218.4 621.417 1214.98C621.417 1211.58 622.201 1208.39 623.822 1205.46C625.417 1202.48 627.64 1200.1 630.516 1198.35C633.445 1196.54 636.739 1195.63 640.452 1195.63C644.217 1195.63 647.512 1196.54 650.388 1198.35C653.317 1200.1 655.566 1202.48 657.187 1205.46C658.782 1208.39 659.592 1211.58 659.592 1214.98C659.592 1218.4 658.782 1221.57 657.187 1224.49C655.566 1227.42 653.317 1229.8 650.388 1231.61C647.512 1233.33 644.217 1234.22 640.452 1234.22ZM640.452 1231.29C643.511 1231.29 646.231 1230.56 648.61 1229.1C651.042 1227.63 652.925 1225.7 654.258 1223.24C655.566 1220.73 656.245 1217.98 656.245 1214.98C656.245 1212.05 655.539 1209.33 654.154 1206.82C652.82 1204.31 650.964 1202.32 648.61 1200.86C646.231 1199.34 643.511 1198.56 640.452 1198.56C637.445 1198.56 634.726 1199.34 632.294 1200.86C629.915 1202.32 628.032 1204.31 626.646 1206.82C625.313 1209.33 624.659 1212.05 624.659 1214.98C624.659 1217.9 625.313 1220.62 626.646 1223.13C627.953 1225.64 629.836 1227.63 632.294 1229.1C634.726 1230.56 637.445 1231.29 640.452 1231.29Z" fill="#6F4323"/>
<path d="M704.007 1234.12C700.163 1234.12 696.816 1233.28 693.966 1231.61C691.168 1229.93 688.998 1227.63 687.481 1224.7C686.017 1221.72 685.285 1218.4 685.285 1214.77C685.285 1211.58 686.017 1208.49 687.481 1205.56C688.998 1202.63 691.168 1200.28 693.966 1198.45C696.816 1196.57 700.137 1195.63 703.902 1195.63C707.38 1195.63 710.544 1196.46 713.42 1198.14C716.27 1199.76 718.545 1202.01 720.218 1204.94C721.892 1207.86 722.728 1211.16 722.728 1214.77V1215.19H688.527C688.527 1218.32 689.181 1221.12 690.514 1223.55C691.822 1225.93 693.652 1227.81 695.953 1229.2C698.306 1230.53 701 1231.19 704.007 1231.19C707.563 1231.19 710.517 1230.4 712.897 1228.78C715.25 1227.11 717.237 1224.78 718.859 1221.77L721.473 1223.13C719.8 1226.64 717.447 1229.36 714.466 1231.29C711.459 1233.18 707.981 1234.12 704.007 1234.12ZM719.172 1212.36C718.806 1209.38 717.865 1206.87 716.348 1204.83C714.884 1202.74 713.028 1201.17 710.805 1200.12C708.635 1199.08 706.334 1198.56 703.902 1198.56C701.392 1198.56 699.091 1199.08 696.999 1200.12C694.907 1201.17 693.129 1202.74 691.665 1204.83C690.2 1206.87 689.207 1209.38 688.736 1212.36H719.172Z" fill="#6F4323"/>
<path d="M735.27 1196.57V1204.1C736.577 1201.46 738.407 1199.39 740.708 1197.93C743.062 1196.41 745.65 1195.63 748.448 1195.63C751.586 1195.63 754.044 1196.57 755.874 1198.45C757.757 1200.28 759.038 1202.61 759.744 1205.46C760.921 1202.61 762.673 1200.28 764.974 1198.45C767.327 1196.57 770.099 1195.63 773.236 1195.63C777.551 1195.63 780.767 1197.06 782.859 1199.91C785.003 1202.79 786.101 1206.9 786.101 1212.26V1233.28H782.963V1211.84C782.963 1203 779.616 1198.56 772.923 1198.56C770.412 1198.56 768.216 1199.26 766.333 1200.65C764.503 1202.06 763.091 1203.94 762.045 1206.3C761.051 1208.6 760.581 1211.11 760.581 1213.83V1233.28H757.443V1212.78C757.443 1203.31 754.305 1198.56 748.03 1198.56C745.65 1198.56 743.48 1199.24 741.545 1200.54C739.584 1201.88 738.041 1203.73 736.943 1206.09C735.819 1208.39 735.27 1211.08 735.27 1214.14V1233.28H732.132V1196.57H735.27Z" fill="#6F4323"/>
<path d="M813.948 1234.22C810.235 1234.22 806.94 1233.33 804.012 1231.61C801.135 1229.88 798.913 1227.53 797.318 1224.6C795.697 1221.62 794.912 1218.4 794.912 1214.98C794.912 1211.58 795.697 1208.39 797.318 1205.46C798.913 1202.48 801.135 1200.1 804.012 1198.35C806.94 1196.54 810.235 1195.63 813.948 1195.63C817.713 1195.63 821.008 1196.54 823.884 1198.35C826.813 1200.1 829.061 1202.48 830.682 1205.46C832.277 1208.39 833.088 1211.58 833.088 1214.98C833.088 1218.4 832.277 1221.57 830.682 1224.49C829.061 1227.42 826.813 1229.8 823.884 1231.61C821.008 1233.33 817.713 1234.22 813.948 1234.22ZM813.948 1231.29C817.007 1231.29 819.726 1230.56 822.106 1229.1C824.538 1227.63 826.42 1225.7 827.754 1223.24C829.061 1220.73 829.741 1217.98 829.741 1214.98C829.741 1212.05 829.035 1209.33 827.649 1206.82C826.316 1204.31 824.459 1202.32 822.106 1200.86C819.726 1199.34 817.007 1198.56 813.948 1198.56C810.941 1198.56 808.221 1199.34 805.79 1200.86C803.41 1202.32 801.528 1204.31 800.142 1206.82C798.808 1209.33 798.154 1212.05 798.154 1214.98C798.154 1217.9 798.808 1220.62 800.142 1223.13C801.449 1225.64 803.332 1227.63 805.79 1229.1C808.221 1230.56 810.941 1231.29 813.948 1231.29Z" fill="#6F4323"/>
<path d="M876.721 1226.06C872.746 1231.24 867.36 1233.93 860.614 1234.22L860.3 1237.15C862.104 1237.15 863.49 1237.49 864.484 1238.2C865.451 1238.95 865.948 1239.97 865.948 1241.23C865.948 1242.12 865.634 1242.93 865.007 1243.63C864.379 1244.39 863.464 1244.99 862.287 1245.41C861.163 1245.88 859.829 1246.14 858.313 1246.14C856.273 1246.14 854.364 1245.78 852.56 1245.1L853.397 1243.22C854.861 1243.69 856.378 1243.95 857.999 1243.95C859.672 1243.95 860.928 1243.69 861.764 1243.22C862.653 1242.8 863.124 1242.2 863.124 1241.44C863.124 1240.81 862.836 1240.29 862.287 1239.87C861.712 1239.5 860.928 1239.35 859.882 1239.35C859.176 1239.35 858.417 1239.45 857.581 1239.66L858.313 1234.22C854.757 1233.93 851.619 1232.94 848.9 1231.19C846.232 1229.38 844.193 1227.06 842.729 1224.18C841.264 1221.33 840.532 1218.27 840.532 1214.98C840.532 1211.5 841.317 1208.28 842.938 1205.35C844.533 1202.37 846.808 1199.99 849.736 1198.24C852.717 1196.52 856.064 1195.63 859.777 1195.63C863.385 1195.63 866.602 1196.36 869.399 1197.82C872.171 1199.24 874.446 1201.25 876.198 1203.89L874.002 1205.88C872.328 1203.44 870.288 1201.64 867.935 1200.44C865.556 1199.18 862.81 1198.56 859.672 1198.56C856.587 1198.56 853.841 1199.29 851.41 1200.75C849.03 1202.22 847.148 1204.26 845.762 1206.82C844.428 1209.33 843.775 1212.05 843.775 1214.98C843.775 1217.98 844.428 1220.73 845.762 1223.24C847.148 1225.7 849.056 1227.63 851.514 1229.1C853.946 1230.56 856.665 1231.29 859.672 1231.29C862.81 1231.29 865.582 1230.72 868.04 1229.51C870.472 1228.26 872.59 1226.48 874.42 1224.18L876.721 1226.06Z" fill="#6F4323"/>
<path d="M902.009 1234.22C898.296 1234.22 895.001 1233.33 892.073 1231.61C889.196 1229.88 886.974 1227.53 885.379 1224.6C883.758 1221.62 882.973 1218.4 882.973 1214.98C882.973 1211.58 883.758 1208.39 885.379 1205.46C886.974 1202.48 889.196 1200.1 892.073 1198.35C895.001 1196.54 898.296 1195.63 902.009 1195.63C905.774 1195.63 909.069 1196.54 911.945 1198.35C914.874 1200.1 917.122 1202.48 918.743 1205.46C920.338 1208.39 921.149 1211.58 921.149 1214.98C921.149 1218.4 920.338 1221.57 918.743 1224.49C917.122 1227.42 914.874 1229.8 911.945 1231.61C909.069 1233.33 905.774 1234.22 902.009 1234.22ZM902.009 1231.29C905.068 1231.29 907.787 1230.56 910.167 1229.1C912.599 1227.63 914.481 1225.7 915.815 1223.24C917.122 1220.73 917.802 1217.98 917.802 1214.98C917.802 1212.05 917.096 1209.33 915.71 1206.82C914.377 1204.31 912.52 1202.32 910.167 1200.86C907.787 1199.34 905.068 1198.56 902.009 1198.56C899.002 1198.56 896.282 1199.34 893.851 1200.86C891.471 1202.32 889.589 1204.31 888.203 1206.82C886.869 1209.33 886.215 1212.05 886.215 1214.98C886.215 1217.9 886.869 1220.62 888.203 1223.13C889.51 1225.64 891.393 1227.63 893.851 1229.1C896.282 1230.56 899.002 1231.29 902.009 1231.29ZM906.611 1188.51C905.696 1188.51 904.859 1188.38 904.101 1188.1C903.395 1187.83 902.532 1187.44 901.486 1186.95C900.78 1186.61 900.074 1186.32 899.394 1186.11C898.766 1185.85 898.165 1185.69 897.616 1185.69C896.701 1185.69 895.864 1185.9 895.106 1186.32C894.321 1186.74 893.563 1187.31 892.805 1187.99L891.236 1186C892.073 1185.04 893.014 1184.28 894.06 1183.7C895.158 1183.08 896.309 1182.76 897.511 1182.76C898.4 1182.76 899.211 1182.92 899.917 1183.18C900.675 1183.47 901.59 1183.86 902.636 1184.33C903.316 1184.7 903.996 1185.01 904.624 1185.27C905.303 1185.48 905.983 1185.59 906.611 1185.59C907.448 1185.59 908.206 1185.46 908.912 1185.17C909.67 1184.83 910.428 1184.33 911.213 1183.7L912.782 1185.9C911.736 1186.81 910.716 1187.47 909.749 1187.89C908.833 1188.31 907.787 1188.51 906.611 1188.51Z" fill="#6F4323"/>
<path d="M947.315 1234.12C943.471 1234.12 940.124 1233.28 937.274 1231.61C934.477 1229.93 932.306 1227.63 930.79 1224.7C929.325 1221.72 928.593 1218.4 928.593 1214.77C928.593 1211.58 929.325 1208.49 930.79 1205.56C932.306 1202.63 934.477 1200.28 937.274 1198.45C940.124 1196.57 943.445 1195.63 947.211 1195.63C950.688 1195.63 953.852 1196.46 956.728 1198.14C959.578 1199.76 961.853 1202.01 963.527 1204.94C965.2 1207.86 966.037 1211.16 966.037 1214.77V1215.19H931.836C931.836 1218.32 932.489 1221.12 933.823 1223.55C935.13 1225.93 936.961 1227.81 939.262 1229.2C941.615 1230.53 944.308 1231.19 947.315 1231.19C950.871 1231.19 953.826 1230.4 956.205 1228.78C958.559 1227.11 960.546 1224.78 962.167 1221.77L964.782 1223.13C963.108 1226.64 960.755 1229.36 957.774 1231.29C954.767 1233.18 951.29 1234.12 947.315 1234.12ZM962.481 1212.36C962.115 1209.38 961.174 1206.87 959.657 1204.83C958.193 1202.74 956.336 1201.17 954.114 1200.12C951.943 1199.08 949.642 1198.56 947.211 1198.56C944.7 1198.56 942.399 1199.08 940.308 1200.12C938.216 1201.17 936.438 1202.74 934.973 1204.83C933.509 1206.87 932.515 1209.38 932.045 1212.36H962.481Z" fill="#6F4323"/>
<path d="M983.008 1234.22C980.76 1234.22 978.72 1233.75 976.838 1232.86C974.955 1231.97 973.334 1230.72 972.026 1229.1L974.014 1226.9C975.321 1228.36 976.681 1229.46 978.093 1230.14C979.557 1230.85 981.126 1231.19 982.799 1231.19C984.316 1231.19 985.676 1230.93 986.878 1230.35C988.055 1229.8 988.97 1228.99 989.598 1227.95C990.278 1226.85 990.644 1225.59 990.644 1224.18C990.644 1223.13 990.461 1222.25 990.121 1221.46C989.755 1220.7 989.179 1219.94 988.343 1219.16C987.506 1218.4 986.303 1217.59 984.787 1216.75C981.989 1215.24 979.871 1213.98 978.406 1212.99C976.942 1211.94 975.792 1210.79 974.955 1209.54C974.17 1208.23 973.804 1206.66 973.804 1204.83C973.804 1203.03 974.223 1201.43 975.06 1200.02C975.949 1198.63 977.151 1197.56 978.616 1196.78C980.132 1196.02 981.806 1195.63 983.636 1195.63C985.519 1195.63 987.218 1196.02 988.761 1196.78C990.356 1197.48 991.925 1198.61 993.468 1200.12L991.376 1202.22C990.173 1200.96 988.97 1200.07 987.715 1199.5C986.46 1198.87 985.1 1198.56 983.636 1198.56C982.224 1198.56 981.021 1198.84 979.975 1199.39C978.982 1199.97 978.197 1200.73 977.57 1201.69C976.994 1202.61 976.733 1203.63 976.733 1204.73C976.733 1206.19 977.177 1207.5 978.093 1208.6C978.982 1209.64 980.42 1210.69 982.381 1211.73C985.231 1213.41 987.401 1214.77 988.866 1215.81C990.382 1216.86 991.533 1218.06 992.317 1219.37C993.154 1220.62 993.572 1222.17 993.572 1223.97C993.572 1225.8 993.154 1227.5 992.317 1229.1C991.533 1230.64 990.33 1231.89 988.656 1232.86C987.035 1233.75 985.153 1234.22 983.008 1234.22Z" fill="#6F4323"/>
<path d="M999.956 1242.27L1004.98 1225.85L1009.58 1227.42L1001.94 1243.01L999.956 1242.27Z" fill="#6F4323"/>
<path d="M1042.79 1196.57V1204.62C1044.52 1201.64 1046.66 1199.39 1049.17 1197.93C1051.68 1196.41 1054.43 1195.63 1057.44 1195.63C1061.83 1195.63 1065.2 1197.09 1067.58 1200.02C1069.93 1202.95 1071.14 1207.24 1071.14 1212.88V1233.28H1068V1213.2C1068 1208.39 1067.11 1204.73 1065.38 1202.22C1063.63 1199.71 1060.84 1198.45 1057.02 1198.45C1054.43 1198.45 1052.05 1199.16 1049.91 1200.54C1047.73 1201.88 1045.98 1203.73 1044.68 1206.09C1043.42 1208.39 1042.79 1211 1042.79 1213.93V1233.28H1039.66V1196.57H1042.79Z" fill="#6F4323"/>
<path d="M1097.05 1234.22C1091.75 1234.22 1087.77 1232.65 1085.13 1229.51C1082.46 1226.38 1081.16 1221.75 1081.16 1215.6V1196.57H1084.29V1216.54C1084.29 1221.43 1085.37 1225.1 1087.54 1227.53C1089.76 1229.98 1092.92 1231.19 1097.05 1231.19C1101.08 1231.19 1104.17 1229.98 1106.26 1227.53C1108.35 1225.02 1109.4 1221.43 1109.4 1216.75V1196.57H1112.64V1215.71C1112.64 1221.77 1111.3 1226.38 1108.66 1229.51C1106 1232.65 1102.13 1234.22 1097.05 1234.22Z" fill="#6F4323"/>
<path d="M1127.06 1199.29H1119.94V1196.57H1127.06V1182.76H1130.19V1196.57H1138.46V1199.29H1130.19V1233.28H1127.06V1199.29Z" fill="#6F4323"/>
<path d="M1148.27 1196.57V1203.89C1149.32 1201.54 1150.7 1199.58 1152.46 1198.03C1154.26 1196.44 1156.38 1195.63 1158.84 1195.63C1159.67 1195.63 1160.43 1195.73 1161.14 1195.94C1161.9 1196.1 1162.5 1196.33 1162.92 1196.67L1161.56 1199.18C1161.14 1199.05 1160.64 1198.92 1160.09 1198.76C1159.6 1198.63 1159.05 1198.56 1158.42 1198.56C1156.38 1198.56 1154.6 1199.29 1153.08 1200.75C1151.54 1202.16 1150.36 1204.1 1149.53 1206.61C1148.69 1209.12 1148.27 1211.92 1148.27 1214.98V1233.28H1145.14V1196.57H1148.27Z" fill="#6F4323"/>
<path d="M1169.82 1188.93C1168.99 1188.93 1168.28 1188.67 1167.73 1188.1C1167.16 1187.47 1166.9 1186.79 1166.9 1186C1166.9 1185.17 1167.16 1184.49 1167.73 1183.91C1168.36 1183.36 1169.04 1183.08 1169.82 1183.08C1170.58 1183.08 1171.24 1183.36 1171.81 1183.91C1172.44 1184.49 1172.75 1185.17 1172.75 1186C1172.75 1186.79 1172.44 1187.47 1171.81 1188.1C1171.24 1188.67 1170.58 1188.93 1169.82 1188.93ZM1168.26 1196.57H1171.39V1233.28H1168.26V1196.57Z" fill="#6F4323"/>
<path d="M1185.88 1196.57V1204.62C1187.6 1201.64 1189.74 1199.39 1192.26 1197.93C1194.77 1196.41 1197.51 1195.63 1200.52 1195.63C1204.91 1195.63 1208.28 1197.09 1210.66 1200.02C1213.02 1202.95 1214.22 1207.24 1214.22 1212.88V1233.28H1211.08V1213.2C1211.08 1208.39 1210.19 1204.73 1208.47 1202.22C1206.71 1199.71 1203.92 1198.45 1200.1 1198.45C1197.51 1198.45 1195.13 1199.16 1192.99 1200.54C1190.82 1201.88 1189.07 1203.73 1187.76 1206.09C1186.5 1208.39 1185.88 1211 1185.88 1213.93V1233.28H1182.74V1196.57H1185.88Z" fill="#6F4323"/>
<path d="M1241.81 1234.12C1238.18 1234.12 1234.93 1233.25 1232.08 1231.5C1229.21 1229.7 1226.98 1227.32 1225.39 1224.39C1223.77 1221.41 1222.98 1218.22 1222.98 1214.87C1222.98 1211.47 1223.77 1208.28 1225.39 1205.35C1226.98 1202.43 1229.21 1200.1 1232.08 1198.35C1235.01 1196.54 1238.28 1195.63 1241.91 1195.63C1245.47 1195.63 1248.61 1196.52 1251.33 1198.24C1254.1 1199.91 1256.27 1202.37 1257.81 1205.56V1182.45H1260.95V1233.28H1257.81V1224.7C1256.27 1227.63 1254.1 1229.93 1251.33 1231.61C1248.61 1233.28 1245.42 1234.12 1241.81 1234.12ZM1242.02 1231.29C1244.79 1231.29 1247.41 1230.66 1249.86 1229.41C1252.37 1228.1 1254.36 1226.22 1255.83 1223.76C1257.29 1221.33 1258.02 1218.43 1258.02 1215.08C1258.02 1212.23 1257.34 1209.54 1256.03 1207.03C1254.78 1204.46 1252.92 1202.4 1250.49 1200.86C1248.03 1199.34 1245.21 1198.56 1242.02 1198.56C1238.88 1198.56 1236.08 1199.34 1233.65 1200.86C1231.27 1202.4 1229.42 1204.41 1228.11 1206.92C1226.85 1209.43 1226.23 1212.13 1226.23 1214.98C1226.23 1217.9 1226.88 1220.62 1228.21 1223.13C1229.6 1225.64 1231.48 1227.63 1233.86 1229.1C1236.29 1230.56 1239.01 1231.29 1242.02 1231.29Z" fill="#6F4323"/>
<path d="M1289.51 1234.22C1285.79 1234.22 1282.5 1233.33 1279.57 1231.61C1276.69 1229.88 1274.47 1227.53 1272.88 1224.6C1271.26 1221.62 1270.47 1218.4 1270.47 1214.98C1270.47 1211.58 1271.26 1208.39 1272.88 1205.46C1274.47 1202.48 1276.69 1200.1 1279.57 1198.35C1282.5 1196.54 1285.79 1195.63 1289.51 1195.63C1293.27 1195.63 1296.57 1196.54 1299.44 1198.35C1302.37 1200.1 1304.62 1202.48 1306.24 1205.46C1307.84 1208.39 1308.65 1211.58 1308.65 1214.98C1308.65 1218.4 1307.84 1221.57 1306.24 1224.49C1304.62 1227.42 1302.37 1229.8 1299.44 1231.61C1296.57 1233.33 1293.27 1234.22 1289.51 1234.22ZM1289.51 1231.29C1292.57 1231.29 1295.29 1230.56 1297.66 1229.1C1300.1 1227.63 1301.98 1225.7 1303.31 1223.24C1304.62 1220.73 1305.3 1217.98 1305.3 1214.98C1305.3 1212.05 1304.59 1209.33 1303.21 1206.82C1301.87 1204.31 1300.02 1202.32 1297.66 1200.86C1295.29 1199.34 1292.57 1198.56 1289.51 1198.56C1286.5 1198.56 1283.78 1199.34 1281.35 1200.86C1278.97 1202.32 1277.09 1204.31 1275.7 1206.82C1274.37 1209.33 1273.71 1212.05 1273.71 1214.98C1273.71 1217.9 1274.37 1220.62 1275.7 1223.13C1277.01 1225.64 1278.89 1227.63 1281.35 1229.1C1283.78 1230.56 1286.5 1231.29 1289.51 1231.29Z" fill="#6F4323"/>
<path d="M1362.47 1196.57H1365.92L1349.71 1233.28H1348.56L1332.34 1196.57H1335.8L1349.18 1227.32L1362.47 1196.57Z" fill="#6F4323"/>
<path d="M1374.15 1188.93C1373.31 1188.93 1372.61 1188.67 1372.06 1188.1C1371.48 1187.47 1371.22 1186.79 1371.22 1186C1371.22 1185.17 1371.48 1184.49 1372.06 1183.91C1372.68 1183.36 1373.36 1183.08 1374.15 1183.08C1374.91 1183.08 1375.56 1183.36 1376.14 1183.91C1376.76 1184.49 1377.08 1185.17 1377.08 1186C1377.08 1186.79 1376.76 1187.47 1376.14 1188.1C1375.56 1188.67 1374.91 1188.93 1374.15 1188.93ZM1372.58 1196.57H1375.72V1233.28H1372.58V1196.57Z" fill="#6F4323"/>
<path d="M1403.9 1234.12C1400.27 1234.12 1397.02 1233.25 1394.17 1231.5C1391.3 1229.7 1389.08 1227.32 1387.48 1224.39C1385.86 1221.41 1385.08 1218.22 1385.08 1214.87C1385.08 1211.47 1385.86 1208.28 1387.48 1205.35C1389.08 1202.43 1391.3 1200.1 1394.17 1198.35C1397.1 1196.54 1400.37 1195.63 1404.01 1195.63C1407.56 1195.63 1410.7 1196.52 1413.42 1198.24C1416.19 1199.91 1418.36 1202.37 1419.9 1205.56V1182.45H1423.04V1233.28H1419.9V1224.7C1418.36 1227.63 1416.19 1229.93 1413.42 1231.61C1410.7 1233.28 1407.51 1234.12 1403.9 1234.12ZM1404.11 1231.29C1406.88 1231.29 1409.5 1230.66 1411.96 1229.41C1414.47 1228.1 1416.45 1226.22 1417.92 1223.76C1419.38 1221.33 1420.11 1218.43 1420.11 1215.08C1420.11 1212.23 1419.43 1209.54 1418.13 1207.03C1416.87 1204.46 1415.01 1202.4 1412.58 1200.86C1410.12 1199.34 1407.3 1198.56 1404.11 1198.56C1400.97 1198.56 1398.18 1199.34 1395.74 1200.86C1393.36 1202.4 1391.51 1204.41 1390.2 1206.92C1388.95 1209.43 1388.32 1212.13 1388.32 1214.98C1388.32 1217.9 1388.97 1220.62 1390.3 1223.13C1391.69 1225.64 1393.57 1227.63 1395.95 1229.1C1398.38 1230.56 1401.1 1231.29 1404.11 1231.29Z" fill="#6F4323"/>
<path d="M1451.39 1234.12C1447.75 1234.12 1444.51 1233.25 1441.66 1231.5C1438.78 1229.7 1436.56 1227.32 1434.97 1224.39C1433.35 1221.41 1432.56 1218.22 1432.56 1214.87C1432.56 1211.47 1433.35 1208.28 1434.97 1205.35C1436.56 1202.43 1438.78 1200.1 1441.66 1198.35C1444.59 1196.54 1447.86 1195.63 1451.49 1195.63C1455.05 1195.63 1458.19 1196.52 1460.91 1198.24C1463.68 1199.91 1465.85 1202.37 1467.39 1205.56V1196.57H1470.53V1233.28H1467.39V1224.7C1465.85 1227.63 1463.68 1229.93 1460.91 1231.61C1458.19 1233.28 1455 1234.12 1451.39 1234.12ZM1451.6 1231.29C1454.37 1231.29 1456.98 1230.66 1459.44 1229.41C1461.95 1228.1 1463.94 1226.22 1465.4 1223.76C1466.87 1221.33 1467.6 1218.43 1467.6 1215.08C1467.6 1212.23 1466.92 1209.54 1465.61 1207.03C1464.36 1204.46 1462.5 1202.4 1460.07 1200.86C1457.61 1199.34 1454.79 1198.56 1451.6 1198.56C1448.46 1198.56 1445.66 1199.34 1443.23 1200.86C1440.85 1202.4 1438.99 1204.41 1437.69 1206.92C1436.43 1209.43 1435.8 1212.13 1435.8 1214.98C1435.8 1217.9 1436.46 1220.62 1437.79 1223.13C1439.18 1225.64 1441.06 1227.63 1443.44 1229.1C1445.87 1230.56 1448.59 1231.29 1451.6 1231.29Z" fill="#6F4323"/>
<path d="M1489.88 1234.22C1487.63 1234.22 1485.59 1233.75 1483.71 1232.86C1481.83 1231.97 1480.21 1230.72 1478.9 1229.1L1480.89 1226.9C1482.19 1228.36 1483.55 1229.46 1484.96 1230.14C1486.43 1230.85 1488 1231.19 1489.67 1231.19C1491.19 1231.19 1492.55 1230.93 1493.75 1230.35C1494.93 1229.8 1495.84 1228.99 1496.47 1227.95C1497.15 1226.85 1497.52 1225.59 1497.52 1224.18C1497.52 1223.13 1497.33 1222.25 1496.99 1221.46C1496.63 1220.7 1496.05 1219.94 1495.21 1219.16C1494.38 1218.4 1493.17 1217.59 1491.66 1216.75C1488.86 1215.24 1486.74 1213.98 1485.28 1212.99C1483.81 1211.94 1482.66 1210.79 1481.83 1209.54C1481.04 1208.23 1480.68 1206.66 1480.68 1204.83C1480.68 1203.03 1481.09 1201.43 1481.93 1200.02C1482.82 1198.63 1484.02 1197.56 1485.49 1196.78C1487 1196.02 1488.68 1195.63 1490.51 1195.63C1492.39 1195.63 1494.09 1196.02 1495.63 1196.78C1497.23 1197.48 1498.8 1198.61 1500.34 1200.12L1498.25 1202.22C1497.04 1200.96 1495.84 1200.07 1494.59 1199.5C1493.33 1198.87 1491.97 1198.56 1490.51 1198.56C1489.1 1198.56 1487.89 1198.84 1486.85 1199.39C1485.85 1199.97 1485.07 1200.73 1484.44 1201.69C1483.87 1202.61 1483.6 1203.63 1483.6 1204.73C1483.6 1206.19 1484.05 1207.5 1484.96 1208.6C1485.85 1209.64 1487.29 1210.69 1489.25 1211.73C1492.1 1213.41 1494.27 1214.77 1495.74 1215.81C1497.25 1216.86 1498.4 1218.06 1499.19 1219.37C1500.03 1220.62 1500.44 1222.17 1500.44 1223.97C1500.44 1225.8 1500.03 1227.5 1499.19 1229.1C1498.4 1230.64 1497.2 1231.89 1495.53 1232.86C1493.91 1233.75 1492.02 1234.22 1489.88 1234.22Z" fill="#6F4323"/>
<path d="M1512.06 1234.22C1511.14 1234.22 1510.38 1233.91 1509.76 1233.28C1509.13 1232.6 1508.81 1231.79 1508.81 1230.87C1508.81 1229.99 1509.13 1229.17 1509.76 1228.47C1510.44 1227.79 1511.22 1227.42 1512.06 1227.42C1513.02 1227.42 1513.83 1227.79 1514.46 1228.47C1515.14 1229.1 1515.51 1229.91 1515.51 1230.87C1515.51 1231.87 1515.14 1232.65 1514.46 1233.28C1513.83 1233.91 1513.02 1234.22 1512.06 1234.22Z" fill="#6F4323"/>
<path d="M1121.48 378.443C1136.28 375.462 1223.36 432.465 1228.64 542.521C1230.76 586.554 1207.04 640.89 1194.04 661.86C1109.66 797.908 930.081 826.957 836.576 767.523C817.122 755.129 797.433 720.065 782.555 703.121C827.089 661.425 869.394 617.19 912.019 573.405C871.768 615.183 830.074 659.231 789.745 697.134C804.239 712.014 826.023 741.714 844.815 752.34C935.028 803.281 1105.75 771.296 1183.7 645.366C1195.73 625.95 1217.33 575.964 1214.51 536.129C1207.45 436.555 1143.68 383.359 1113.56 383.359C1111.9 383.821 1109.61 385.013 1106.81 386.827C1113.32 382.062 1118.4 379.063 1121.48 378.443Z" fill="#A95604"/>
<mask id="mask0_1_2068" style="mask-type:luminance" maskUnits="userSpaceOnUse" x="802" y="554" width="148" height="201">
<path d="M802.297 554.052H949.562V754.868H802.297V554.052Z" fill="white"/>
</mask>
<g mask="url(#mask0_1_2068)">
<mask id="mask1_1_2068" style="mask-type:luminance" maskUnits="userSpaceOnUse" x="748" y="365" width="520" height="477">
<path d="M748.223 422.555L1216.66 365.291L1267.83 783.892L799.395 841.156L748.223 422.555Z" fill="white"/>
</mask>
<g mask="url(#mask1_1_2068)">
<mask id="mask2_1_2068" style="mask-type:luminance" maskUnits="userSpaceOnUse" x="748" y="365" width="520" height="477">
<path d="M748.223 422.555L1216.66 365.291L1267.83 783.892L799.395 841.156L748.223 422.555Z" fill="white"/>
</mask>
<g mask="url(#mask2_1_2068)">
<path fill-rule="evenodd" clip-rule="evenodd" d="M916.903 577.925C908.196 592.464 893.579 604.073 881.107 617.016C852.318 646.851 849.52 649.44 834.014 667.926C826.013 677.444 803.055 692.505 807.474 698.179C818.718 712.535 845.232 730.681 859.012 740.513C868.268 747.102 889.631 751.155 901.031 752.646C918.106 754.842 917.635 731.257 920.511 717.398C922.708 706.808 924.564 695.068 926.682 684.478C928.277 676.555 930.108 663.873 931.363 655.898C932.409 649.388 932.932 642.772 933.768 636.235C934.448 631.032 936.592 618.455 937.22 613.251C938.658 601.511 940.881 593.64 942.554 581.952C942.737 580.671 948.568 544.038 932.199 559.91C930.892 561.165 927.781 565.008 926.604 566.368C922.499 571.022 919.021 574.422 916.903 577.925Z" fill="#A95604"/>
</g>
</g>
</g>
<mask id="mask3_1_2068" style="mask-type:luminance" maskUnits="userSpaceOnUse" x="936" y="547" width="121" height="208">
<path d="M936.174 547.359H1056.66V754.868H936.174V547.359Z" fill="white"/>
</mask>
<g mask="url(#mask3_1_2068)">
<mask id="mask4_1_2068" style="mask-type:luminance" maskUnits="userSpaceOnUse" x="748" y="365" width="520" height="477">
<path d="M748.223 422.555L1216.66 365.291L1267.83 783.892L799.394 841.156L748.223 422.555Z" fill="white"/>
</mask>
<g mask="url(#mask4_1_2068)">
<mask id="mask5_1_2068" style="mask-type:luminance" maskUnits="userSpaceOnUse" x="748" y="365" width="520" height="477">
<path d="M748.223 422.555L1216.66 365.291L1267.83 783.892L799.394 841.156L748.223 422.555Z" fill="white"/>
</mask>
<g mask="url(#mask5_1_2068)">
<path fill-rule="evenodd" clip-rule="evenodd" d="M958.791 552.902C950.816 565.557 948.934 596.726 946.842 619.004C944.488 643.923 943.312 670.855 942.475 696.14C942.083 708.429 936.33 734.76 943.913 746.631C949.117 754.79 962.897 751.233 970.323 750.815C987.423 749.874 1029 740.853 1050.78 723.569C1058.26 717.66 1036.45 688.479 1026.17 673.627C1012.55 653.911 1006.2 640.497 995.398 618.821C993.542 615.134 986.77 598.059 985.201 594.242C979.239 579.808 965.224 542.652 958.791 552.902Z" fill="#A95604"/>
</g>
</g>
</g>
<mask id="mask6_1_2068" style="mask-type:luminance" maskUnits="userSpaceOnUse" x="976" y="533" width="188" height="182">
<path d="M976.337 533.971H1163.77V714.705H976.337V533.971Z" fill="white"/>
</mask>
<g mask="url(#mask6_1_2068)">
<mask id="mask7_1_2068" style="mask-type:luminance" maskUnits="userSpaceOnUse" x="748" y="365" width="520" height="477">
<path d="M748.223 422.555L1216.66 365.291L1267.83 783.892L799.395 841.156L748.223 422.555Z" fill="white"/>
</mask>
<g mask="url(#mask7_1_2068)">
<mask id="mask8_1_2068" style="mask-type:luminance" maskUnits="userSpaceOnUse" x="748" y="365" width="520" height="477">
<path d="M748.223 422.555L1216.66 365.291L1267.83 783.892L799.395 841.156L748.223 422.555Z" fill="white"/>
</mask>
<g mask="url(#mask8_1_2068)">
<path fill-rule="evenodd" clip-rule="evenodd" d="M982.142 537.396C974.586 544.508 1026.57 648.08 1042.73 676.32C1049.97 688.949 1060.85 711.489 1077.16 713.999C1087.41 715.568 1095.26 708.403 1103.1 703.147C1118.74 692.688 1162.43 651.427 1163.14 632.757C1163.69 618.35 1139.11 611.918 1126.95 606.453C1104.72 596.464 1078.13 583.521 1056.66 572.068C1039.54 562.943 995.085 537.475 982.142 537.396Z" fill="#A95604"/>
</g>
</g>
</g>
<mask id="mask9_1_2068" style="mask-type:luminance" maskUnits="userSpaceOnUse" x="996" y="500" width="208" height="108">
<path d="M996.419 500.501H1203.93V607.603H996.419V500.501Z" fill="white"/>
</mask>
<g mask="url(#mask9_1_2068)">
<mask id="mask10_1_2068" style="mask-type:luminance" maskUnits="userSpaceOnUse" x="748" y="365" width="520" height="477">
<path d="M748.223 422.555L1216.66 365.291L1267.83 783.892L799.395 841.156L748.223 422.555Z" fill="white"/>
</mask>
<g mask="url(#mask10_1_2068)">
<mask id="mask11_1_2068" style="mask-type:luminance" maskUnits="userSpaceOnUse" x="748" y="365" width="520" height="477">
<path d="M748.223 422.555L1216.66 365.291L1267.83 783.892L799.395 841.156L748.223 422.555Z" fill="white"/>
</mask>
<g mask="url(#mask11_1_2068)">
<path fill-rule="evenodd" clip-rule="evenodd" d="M1000.68 517.994C1015.25 528.009 1025.26 535.069 1040.45 544.116C1054.02 552.196 1066.78 558.21 1080.67 565.374C1089.37 569.898 1105.38 577.716 1114.03 582.24C1122.82 586.789 1130.69 589.692 1139.66 594.111C1148.52 598.451 1166.28 610.819 1177.05 605.799C1187.98 600.7 1190.83 575.964 1194.12 565.191C1206.39 524.871 1198.49 515.876 1191.3 513.131C1180.92 509.156 1163.79 507.117 1141.41 506.071C1118.95 505.025 1093.64 507.431 1071.46 506.725C1052.17 506.123 1035.38 507.561 1015.87 507.431C1009.47 507.405 994.301 511.771 1000.68 517.994Z" fill="#A95604"/>
</g>
</g>
</g>
<mask id="mask12_1_2068" style="mask-type:luminance" maskUnits="userSpaceOnUse" x="1009" y="400" width="182" height="101">
<path d="M1009.81 400.094H1190.54V500.501H1009.81V400.094Z" fill="white"/>
</mask>
<g mask="url(#mask12_1_2068)">
<mask id="mask13_1_2068" style="mask-type:luminance" maskUnits="userSpaceOnUse" x="748" y="365" width="520" height="477">
<path d="M748.223 422.555L1216.66 365.291L1267.83 783.892L799.394 841.156L748.223 422.555Z" fill="white"/>
</mask>
<g mask="url(#mask13_1_2068)">
<mask id="mask14_1_2068" style="mask-type:luminance" maskUnits="userSpaceOnUse" x="748" y="365" width="520" height="477">
<path d="M748.223 422.555L1216.66 365.291L1267.83 783.892L799.394 841.156L748.223 422.555Z" fill="white"/>
</mask>
<g mask="url(#mask14_1_2068)">
<path fill-rule="evenodd" clip-rule="evenodd" d="M1018.17 494.409C1030.57 495.899 1044.92 494.121 1057.26 493.415C1088.3 491.611 1119.94 492.892 1151.03 492.369C1163.16 492.16 1188.03 497.494 1186.17 480.211C1183.74 457.776 1139.92 395.91 1111.7 402.447C1097.69 405.689 1089.24 412.906 1079.28 421.927C1071.96 428.595 1066.39 434.53 1058.91 440.963C1050.99 447.761 1042.49 459.554 1035.2 467.084C1030.8 471.634 1003.48 492.605 1018.17 494.409Z" fill="#A95604"/>
</g>
</g>
</g>
<mask id="mask15_1_2068" style="mask-type:luminance" maskUnits="userSpaceOnUse" x="869" y="620" width="34" height="55">
<path d="M869.235 620.991H902.705V674.542H869.235V620.991Z" fill="white"/>
</mask>
<g mask="url(#mask15_1_2068)">
<mask id="mask16_1_2068" style="mask-type:luminance" maskUnits="userSpaceOnUse" x="748" y="365" width="520" height="477">
<path d="M748.223 422.555L1216.66 365.291L1267.83 783.892L799.395 841.156L748.223 422.555Z" fill="white"/>
</mask>
<g mask="url(#mask16_1_2068)">
<mask id="mask17_1_2068" style="mask-type:luminance" maskUnits="userSpaceOnUse" x="748" y="365" width="520" height="477">
<path d="M748.223 422.555L1216.66 365.291L1267.83 783.892L799.395 841.156L748.223 422.555Z" fill="white"/>
</mask>
<g mask="url(#mask17_1_2068)">
<path fill-rule="evenodd" clip-rule="evenodd" d="M899.41 622.978C893.213 633.359 885.918 643.112 879.773 653.545C877.76 656.97 875.59 660.291 873.629 663.743C871.694 667.142 870.517 669.312 870.831 669.077C876.792 664.109 893.605 633.725 899.306 625.096" fill="#FBDBB8"/>
</g>
</g>
</g>
<mask id="mask18_1_2068" style="mask-type:luminance" maskUnits="userSpaceOnUse" x="869" y="647" width="34" height="55">
<path d="M869.235 647.766H902.705V701.317H869.235V647.766Z" fill="white"/>
</mask>
<g mask="url(#mask18_1_2068)">
<mask id="mask19_1_2068" style="mask-type:luminance" maskUnits="userSpaceOnUse" x="748" y="365" width="520" height="477">
<path d="M748.223 422.555L1216.66 365.291L1267.83 783.892L799.395 841.156L748.223 422.555Z" fill="white"/>
</mask>
<g mask="url(#mask19_1_2068)">
<mask id="mask20_1_2068" style="mask-type:luminance" maskUnits="userSpaceOnUse" x="748" y="365" width="520" height="477">
<path d="M748.223 422.555L1216.66 365.291L1267.83 783.892L799.395 841.156L748.223 422.555Z" fill="white"/>
</mask>
<g mask="url(#mask20_1_2068)">
<path fill-rule="evenodd" clip-rule="evenodd" d="M896.586 650.983C889.396 658.879 885.003 671.666 880.741 681.393C879.172 684.949 877.708 688.557 876.191 692.139C874.884 695.225 873.681 698.389 874.335 697.866C880.427 692.871 891.984 663.952 896.56 654.12" fill="#FBDBB8"/>
</g>
</g>
</g>
<mask id="mask21_1_2068" style="mask-type:luminance" maskUnits="userSpaceOnUse" x="882" y="647" width="35" height="82">
<path d="M882.623 647.766H916.092V728.093H882.623V647.766Z" fill="white"/>
</mask>
<g mask="url(#mask21_1_2068)">
<mask id="mask22_1_2068" style="mask-type:luminance" maskUnits="userSpaceOnUse" x="748" y="365" width="520" height="477">
<path d="M748.223 422.555L1216.66 365.291L1267.83 783.892L799.395 841.156L748.223 422.555Z" fill="white"/>
</mask>
<g mask="url(#mask22_1_2068)">
<mask id="mask23_1_2068" style="mask-type:luminance" maskUnits="userSpaceOnUse" x="748" y="365" width="520" height="477">
<path d="M748.223 422.555L1216.66 365.291L1267.83 783.892L799.395 841.156L748.223 422.555Z" fill="white"/>
</mask>
<g mask="url(#mask23_1_2068)">
<path fill-rule="evenodd" clip-rule="evenodd" d="M899.384 687.145C895.331 694.309 893.448 703.2 891.095 711.044C890.232 713.894 889.474 716.797 888.768 719.699C888.428 721.137 887.199 725.399 887.879 724.066C895.226 709.397 899.123 692.139 903.672 676.45C905.11 671.509 906.627 666.723 907.83 661.729C908.457 659.193 909.189 656.709 909.765 654.172C909.922 653.414 910.941 651.688 910.209 651.924C907.385 652.839 899.253 679.144 898.652 681.575" fill="#FBDBB8"/>
</g>
</g>
</g>
<mask id="mask24_1_2068" style="mask-type:luminance" maskUnits="userSpaceOnUse" x="956" y="594" width="21" height="121">
<path d="M956.256 594.216H976.337V714.705H956.256V594.216Z" fill="white"/>
</mask>
<g mask="url(#mask24_1_2068)">
<mask id="mask25_1_2068" style="mask-type:luminance" maskUnits="userSpaceOnUse" x="748" y="365" width="520" height="477">
<path d="M748.223 422.555L1216.66 365.291L1267.83 783.892L799.395 841.156L748.223 422.555Z" fill="white"/>
</mask>
<g mask="url(#mask25_1_2068)">
<mask id="mask26_1_2068" style="mask-type:luminance" maskUnits="userSpaceOnUse" x="748" y="365" width="520" height="477">
<path d="M748.223 422.555L1216.66 365.291L1267.83 783.892L799.395 841.156L748.223 422.555Z" fill="white"/>
</mask>
<g mask="url(#mask26_1_2068)">
<path fill-rule="evenodd" clip-rule="evenodd" d="M959.733 596.516C963.054 622.952 966.793 650.015 967.525 676.66C967.735 685.001 968.467 693.316 969.696 701.579C970.271 705.605 970.402 705.265 971.134 709.083C971.369 710.39 971.788 714.339 971.892 713.031C972.729 702.991 968.624 691.198 967.552 681.209C964.754 654.512 963.629 627.659 960.649 600.962" fill="#FBDBB8"/>
</g>
</g>
</g>
<mask id="mask27_1_2068" style="mask-type:luminance" maskUnits="userSpaceOnUse" x="976" y="654" width="14" height="55">
<path d="M976.337 654.46H989.725V708.011H976.337V654.46Z" fill="white"/>
</mask>
<g mask="url(#mask27_1_2068)">
<mask id="mask28_1_2068" style="mask-type:luminance" maskUnits="userSpaceOnUse" x="748" y="365" width="520" height="477">
<path d="M748.223 422.555L1216.66 365.291L1267.83 783.892L799.395 841.156L748.223 422.555Z" fill="white"/>
</mask>
<g mask="url(#mask28_1_2068)">
<mask id="mask29_1_2068" style="mask-type:luminance" maskUnits="userSpaceOnUse" x="748" y="365" width="520" height="477">
<path d="M748.223 422.555L1216.66 365.291L1267.83 783.892L799.395 841.156L748.223 422.555Z" fill="white"/>
</mask>
<g mask="url(#mask29_1_2068)">
<path fill-rule="evenodd" clip-rule="evenodd" d="M976.494 655.663C977.305 666.671 979.684 677.261 982.011 688.034C982.717 691.276 983.999 701.919 985.228 702.337C986.195 702.625 983.92 688.505 983.763 687.616C982.011 677.287 981.253 666.645 978.978 656.421" fill="#FBDBB8"/>
</g>
</g>
</g>
<mask id="mask30_1_2068" style="mask-type:luminance" maskUnits="userSpaceOnUse" x="1016" y="580" width="61" height="82">
<path d="M1016.5 580.828H1076.74V661.154H1016.5V580.828Z" fill="white"/>
</mask>
<g mask="url(#mask30_1_2068)">
<mask id="mask31_1_2068" style="mask-type:luminance" maskUnits="userSpaceOnUse" x="748" y="365" width="520" height="477">
<path d="M748.223 422.555L1216.66 365.291L1267.83 783.892L799.394 841.156L748.223 422.555Z" fill="white"/>
</mask>
<g mask="url(#mask31_1_2068)">
<mask id="mask32_1_2068" style="mask-type:luminance" maskUnits="userSpaceOnUse" x="748" y="365" width="520" height="477">
<path d="M748.223 422.555L1216.66 365.291L1267.83 783.892L799.394 841.156L748.223 422.555Z" fill="white"/>
</mask>
<g mask="url(#mask32_1_2068)">
<path fill-rule="evenodd" clip-rule="evenodd" d="M1017.47 582.527C1026.25 600.02 1040.61 615.944 1052.37 631.502C1057.21 637.883 1062.1 644.446 1067.65 650.198C1068.98 651.558 1071.78 654.068 1073.24 655.48C1073.55 655.794 1074.42 656.761 1074.18 656.421C1057.21 634.091 1042.1 608.362 1021.65 588.96" fill="#FBDBB8"/>
</g>
</g>
</g>
<mask id="mask33_1_2068" style="mask-type:luminance" maskUnits="userSpaceOnUse" x="1009" y="560" width="48" height="55">
<path d="M1009.81 560.746H1056.66V614.297H1009.81V560.746Z" fill="white"/>
</mask>
<g mask="url(#mask33_1_2068)">
<mask id="mask34_1_2068" style="mask-type:luminance" maskUnits="userSpaceOnUse" x="748" y="365" width="520" height="477">
<path d="M748.223 422.555L1216.66 365.291L1267.83 783.892L799.394 841.156L748.223 422.555Z" fill="white"/>
</mask>
<g mask="url(#mask34_1_2068)">
<mask id="mask35_1_2068" style="mask-type:luminance" maskUnits="userSpaceOnUse" x="748" y="365" width="520" height="477">
<path d="M748.223 422.555L1216.66 365.291L1267.83 783.892L799.394 841.156L748.223 422.555Z" fill="white"/>
</mask>
<g mask="url(#mask35_1_2068)">
<path fill-rule="evenodd" clip-rule="evenodd" d="M1015.74 565.714C1024.71 578.684 1035.22 591.261 1045.52 603.184C1046.75 604.596 1053.45 614.245 1056.09 614.166C1057.03 614.14 1055.46 612.414 1055.02 611.63C1052.87 607.734 1051.12 604.649 1048.58 600.962C1041.21 590.215 1032.01 582.161 1022.38 573.506" fill="#FBDBB8"/>
</g>
</g>
</g>
<mask id="mask36_1_2068" style="mask-type:luminance" maskUnits="userSpaceOnUse" x="1076" y="620" width="35" height="35">
<path d="M1076.74 620.991H1110.21V654.46H1076.74V620.991Z" fill="white"/>
</mask>
<g mask="url(#mask36_1_2068)">
<mask id="mask37_1_2068" style="mask-type:luminance" maskUnits="userSpaceOnUse" x="748" y="365" width="520" height="477">
<path d="M748.223 422.555L1216.66 365.291L1267.83 783.892L799.394 841.156L748.223 422.555Z" fill="white"/>
</mask>
<g mask="url(#mask37_1_2068)">
<mask id="mask38_1_2068" style="mask-type:luminance" maskUnits="userSpaceOnUse" x="748" y="365" width="520" height="477">
<path d="M748.223 422.555L1216.66 365.291L1267.83 783.892L799.394 841.156L748.223 422.555Z" fill="white"/>
</mask>
<g mask="url(#mask38_1_2068)">
<path fill-rule="evenodd" clip-rule="evenodd" d="M1080.51 624.312C1084.07 628.208 1087.52 632.182 1091.1 636.026C1092.64 637.673 1094.19 639.321 1095.7 640.968C1097.38 642.746 1110.97 655.872 1103.7 645.727C1102.6 644.184 1101.38 642.72 1100.12 641.282C1094.45 634.666 1087.86 627.11 1080.22 622.691" fill="#FBDBB8"/>
</g>
</g>
</g>
<mask id="mask39_1_2068" style="mask-type:luminance" maskUnits="userSpaceOnUse" x="1049" y="513" width="95" height="21">
<path d="M1049.97 513.889H1143.68V533.971H1049.97V513.889Z" fill="white"/>
</mask>
<g mask="url(#mask39_1_2068)">
<mask id="mask40_1_2068" style="mask-type:luminance" maskUnits="userSpaceOnUse" x="748" y="365" width="520" height="477">
<path d="M748.223 422.555L1216.66 365.291L1267.83 783.892L799.394 841.156L748.223 422.555Z" fill="white"/>
</mask>
<g mask="url(#mask40_1_2068)">
<mask id="mask41_1_2068" style="mask-type:luminance" maskUnits="userSpaceOnUse" x="748" y="365" width="520" height="477">
<path d="M748.223 422.555L1216.66 365.291L1267.83 783.892L799.394 841.156L748.223 422.555Z" fill="white"/>
</mask>
<g mask="url(#mask41_1_2068)">
<path fill-rule="evenodd" clip-rule="evenodd" d="M1055.59 519.093C1070.6 527.512 1093.22 526.466 1109.8 528.741C1115.94 529.604 1121.98 531.068 1128.18 531.748C1130.71 532.036 1130.58 532.062 1133.12 532.14C1134.48 532.193 1137.72 533.343 1137.17 532.114C1136.6 530.807 1119.03 528.532 1117.64 528.349C1099.36 526.126 1081.76 519.851 1063.12 521.838" fill="#FBDBB8"/>
</g>
</g>
</g>
<mask id="mask42_1_2068" style="mask-type:luminance" maskUnits="userSpaceOnUse" x="1090" y="533" width="81" height="22">
<path d="M1090.13 533.971H1170.46V554.052H1090.13V533.971Z" fill="white"/>
</mask>
<g mask="url(#mask42_1_2068)">
<mask id="mask43_1_2068" style="mask-type:luminance" maskUnits="userSpaceOnUse" x="748" y="365" width="520" height="477">
<path d="M748.223 422.555L1216.66 365.291L1267.83 783.892L799.394 841.156L748.223 422.555Z" fill="white"/>
</mask>
<g mask="url(#mask43_1_2068)">
<mask id="mask44_1_2068" style="mask-type:luminance" maskUnits="userSpaceOnUse" x="748" y="365" width="520" height="477">
<path d="M748.223 422.555L1216.66 365.291L1267.83 783.892L799.394 841.156L748.223 422.555Z" fill="white"/>
</mask>
<g mask="url(#mask44_1_2068)">
<path fill-rule="evenodd" clip-rule="evenodd" d="M1096.51 537.945C1098.08 540.534 1106 540.534 1108.36 540.822C1121.4 542.469 1134.17 545.685 1147.08 548.169C1151.5 549.032 1155.95 549.66 1160.39 550.418C1162.14 550.732 1162.72 550.967 1164.37 551.438C1165.18 551.647 1167.53 551.882 1166.75 552.091C1161.75 553.373 1155.11 550.47 1150.14 549.764C1133.88 547.489 1118.53 544.404 1102.55 540.848" fill="#FBDBB8"/>
</g>
</g>
</g>
<mask id="mask45_1_2068" style="mask-type:luminance" maskUnits="userSpaceOnUse" x="1056" y="473" width="102" height="15">
<path d="M1056.66 473.726H1157.07V487.114H1056.66V473.726Z" fill="white"/>
</mask>
<g mask="url(#mask45_1_2068)">
<mask id="mask46_1_2068" style="mask-type:luminance" maskUnits="userSpaceOnUse" x="748" y="365" width="520" height="477">
<path d="M748.223 422.555L1216.66 365.291L1267.83 783.892L799.395 841.156L748.223 422.555Z" fill="white"/>
</mask>
<g mask="url(#mask46_1_2068)">
<mask id="mask47_1_2068" style="mask-type:luminance" maskUnits="userSpaceOnUse" x="748" y="365" width="520" height="477">
<path d="M748.223 422.555L1216.66 365.291L1267.83 783.892L799.395 841.156L748.223 422.555Z" fill="white"/>
</mask>
<g mask="url(#mask47_1_2068)">
<path fill-rule="evenodd" clip-rule="evenodd" d="M1062.7 480.917C1075.7 481.44 1088.59 483.061 1101.61 483.401C1112.07 483.688 1111.91 483.767 1121.67 483.662C1128.05 483.584 1134.37 483.349 1140.7 482.669C1142.82 482.433 1144.91 482.093 1147 481.91C1148.18 481.806 1151.63 482.12 1150.51 481.832C1132.18 477.204 1114.21 481.283 1095.81 482.433C1086.45 483.009 1077.11 480.838 1067.83 481.754" fill="#FBDBB8"/>
</g>
</g>
</g>
<mask id="mask48_1_2068" style="mask-type:luminance" maskUnits="userSpaceOnUse" x="1103" y="453" width="48" height="15">
<path d="M1103.52 453.645H1150.38V467.032H1103.52V453.645Z" fill="white"/>
</mask>
<g mask="url(#mask48_1_2068)">
<mask id="mask49_1_2068" style="mask-type:luminance" maskUnits="userSpaceOnUse" x="748" y="365" width="520" height="477">
<path d="M748.223 422.555L1216.66 365.291L1267.83 783.892L799.394 841.156L748.223 422.555Z" fill="white"/>
</mask>
<g mask="url(#mask49_1_2068)">
<mask id="mask50_1_2068" style="mask-type:luminance" maskUnits="userSpaceOnUse" x="748" y="365" width="520" height="477">
<path d="M748.223 422.555L1216.66 365.291L1267.83 783.892L799.394 841.156L748.223 422.555Z" fill="white"/>
</mask>
<g mask="url(#mask50_1_2068)">
<path fill-rule="evenodd" clip-rule="evenodd" d="M1104.62 462.483C1110.97 463.189 1117.12 463.006 1123.52 463.058C1129.09 463.11 1128.94 463.424 1134.64 463.607C1136.86 463.659 1139.08 463.581 1141.3 463.528C1149.25 463.319 1140.94 460.652 1136.54 459.946C1130.61 459.005 1121.48 457.018 1115.89 459.842" fill="#FBDBB8"/>
</g>
</g>
</g>
<mask id="mask51_1_2068" style="mask-type:luminance" maskUnits="userSpaceOnUse" x="1070" y="433" width="61" height="28">
<path d="M1070.05 433.563H1130.3V460.338H1070.05V433.563Z" fill="white"/>
</mask>
<g mask="url(#mask51_1_2068)">
<mask id="mask52_1_2068" style="mask-type:luminance" maskUnits="userSpaceOnUse" x="748" y="365" width="520" height="477">
<path d="M748.223 422.555L1216.66 365.291L1267.83 783.892L799.395 841.156L748.223 422.555Z" fill="white"/>
</mask>
<g mask="url(#mask52_1_2068)">
<mask id="mask53_1_2068" style="mask-type:luminance" maskUnits="userSpaceOnUse" x="748" y="365" width="520" height="477">
<path d="M748.223 422.555L1216.66 365.291L1267.83 783.892L799.395 841.156L748.223 422.555Z" fill="white"/>
</mask>
<g mask="url(#mask53_1_2068)">
<path fill-rule="evenodd" clip-rule="evenodd" d="M1071.15 457.044C1077.97 456.73 1088.25 449.853 1094.03 447.108C1099.47 444.545 1104.75 441.617 1110.21 439.106C1113.3 437.694 1116.44 436.413 1119.58 435.21C1121.38 434.53 1126.82 432.883 1125.22 433.929C1121.43 436.439 1116.25 436.544 1112.15 438.427C1106.29 441.094 1100.67 444.467 1094.89 447.317C1091.47 448.99 1088.07 449.853 1086.03 453.095" fill="#FBDBB8"/>
</g>
</g>
</g>
<path d="M651.121 277.74C652.538 279.024 654.298 280.208 656.402 281.286C660.533 283.457 665.37 285.653 670.94 287.875C677.921 290.595 684.616 293.732 691.022 297.288C697.376 300.844 701.951 305.421 704.723 310.99C707.442 316.508 706.893 323.411 703.049 331.699C701.873 333.948 700.618 335.883 699.284 337.557C697.82 339.805 696.539 341.949 695.414 344.041C695.074 344.956 694.761 345.767 694.473 346.446C690.368 354.474 686.89 362.423 684.014 370.293C678.523 387.106 681.399 402.377 692.695 416.105C697.297 422.04 702.631 426.851 708.698 430.538C714.712 434.251 719.784 437.075 723.968 439.01C728.099 440.971 728.857 443.586 726.269 446.855C719.444 456.006 718.32 465.891 722.922 476.559C727.812 488.979 736.362 497.634 748.547 502.497C753.855 503.883 759.294 505.007 764.864 505.844C766.066 505.994 767.267 506.181 768.469 506.391C766.193 508.272 763.928 510.179 761.679 512.115C757.208 515.253 753.05 518.391 749.233 521.529C744.552 525.085 740.029 528.694 735.636 532.302C725.648 539.989 715.711 547.756 705.827 555.626C695.002 565.667 694.583 576.492 704.572 588.049C710.01 594.325 716.757 597.462 724.863 597.462C729.883 597.253 734.825 596.756 739.714 595.998C744.316 595.711 748.867 595.292 753.416 594.743C757.443 594.586 761.313 594.273 765.026 593.802C774.57 592.338 782.624 591.946 789.187 592.652C795.802 593.332 794.521 597.489 785.317 605.098C783.356 606.405 781.604 608.052 780.087 610.013C774.282 617.805 773.942 625.807 779.041 633.965C785.735 645.104 795.253 650.517 807.594 650.177C817.164 649.588 826.683 649.855 836.15 650.994C818.541 668.658 800.734 686.102 782.555 703.122C797.433 720.066 817.123 755.13 836.576 767.525C841.703 770.783 847.089 773.776 852.703 776.499C773.846 777.98 686.105 737.175 621.455 660.825C521.118 542.329 514.397 383.086 606.443 305.146C620.065 293.611 635.087 284.503 651.121 277.74ZM688.385 266.518C775.251 249.865 880.33 290.65 954.784 378.577C979.732 408.04 998.89 440.023 1012.18 472.649C983.087 501.137 957.822 526.873 950.45 534.286C920.473 564.404 891.021 595.173 861.234 625.587C859.905 624.876 858.551 624.217 857.171 623.611C850.687 620.734 845.248 618.617 840.855 617.231C836.514 615.897 835.416 613.465 837.508 609.908C842.999 599.868 842.763 589.879 836.776 579.995C830.134 568.438 820.459 561.039 807.7 557.822C802.313 557.195 796.769 556.855 791.069 556.777C789.029 556.777 786.937 556.724 784.793 556.568C784.584 556.724 784.48 556.777 784.48 556.777C784.28 556.765 784.084 556.747 783.891 556.731C785.253 555.882 786.617 555.028 787.978 554.165C792.789 551.655 797.339 549.093 801.575 546.53C806.673 543.523 811.668 540.568 816.532 537.64C827.487 531.495 838.391 525.22 849.269 518.814C861.349 510.237 863.231 499.517 854.916 486.704C850.393 479.671 844.091 475.67 835.986 474.676C831.044 474.205 826.127 473.996 821.238 474.048C816.636 473.708 812.034 473.5 807.432 473.421C803.405 473.003 799.535 472.793 795.823 472.793C786.2 472.872 778.198 472.114 771.766 470.492C765.281 468.897 767.138 465.001 777.31 458.778C779.402 457.679 781.362 456.32 783.166 454.698C789.939 447.743 791.377 439.846 787.454 431.061C782.382 419.085 773.649 412.418 761.307 411.084C747.71 409.986 734.506 407.214 721.667 402.821C717.222 401.357 714.424 399.553 713.299 397.383C712.123 395.161 712.515 392.023 714.45 387.97C718.372 379.603 722.582 371.627 727.106 364.018C727.263 363.6 727.471 363.155 727.733 362.658C731.707 355.965 734.506 349.166 736.101 342.263C737.644 335.36 737.224 328.326 734.845 321.136C730.243 306.441 723.236 294.046 713.823 284.005C706.943 276.667 698.47 270.839 688.385 266.518Z" fill="#362322"/>
</svg>
