<svg width="1774" height="446" viewBox="0 0 1774 446" fill="none" xmlns="http://www.w3.org/2000/svg">
<path d="M0 116.768C0 81.3634 8.15813 53.6466 24.4744 33.6174C40.7907 13.6142 62.1796 3.59961 88.6936 3.59961C105.01 3.59961 118.633 8.04474 129.589 16.8827C140.519 25.7469 148.468 35.9707 153.436 47.528L141.512 52.3392C129.929 28.0217 112.227 15.8368 88.3798 15.8368C65.9188 15.8368 47.9552 25.0147 34.5152 43.3444C21.049 61.6217 14.329 86.0961 14.329 116.768C14.329 148.014 21.1798 172.698 34.9335 190.818C48.6612 208.887 66.4679 217.908 88.3798 217.908C102.317 217.908 114.24 214.247 124.15 206.925C134.112 199.552 141.669 190.269 146.846 179.104L159.397 183.288C144.467 214.325 120.908 229.831 88.6936 229.831C62.1796 229.831 40.7907 219.79 24.4744 199.709C8.15813 179.627 0 151.989 0 116.768Z" fill="#6F4323"/>
<path d="M197.589 188.099C197.589 196.466 201.093 203.657 208.153 209.645C215.265 215.58 225.149 218.535 237.857 218.535C253.389 218.535 266.829 213.515 278.125 203.474C289.473 193.433 295.173 180.542 295.173 164.775V137.372C285.472 140.719 269.757 144.118 248.002 147.517C214.376 152.904 197.589 166.422 197.589 188.099ZM183.888 188.727C183.888 174.999 188.908 163.808 198.949 155.153C208.99 146.445 225.227 140.405 247.688 137.058C270.202 133.659 286.021 130.051 295.173 126.285V118.232C295.173 106.308 291.12 96.5291 283.04 88.8417C275.013 81.1803 263.743 77.3366 249.257 77.3366C239.687 77.3366 230.535 79.6115 221.75 84.135C213.016 88.6063 205.669 94.6988 199.681 102.439L190.477 95.5355C196.805 87.0375 205.146 80.056 215.474 74.6172C225.855 69.1262 237.02 66.3545 248.944 66.3545C269.234 66.3545 284.243 71.4533 294.023 81.6248C303.776 91.7441 308.665 105.132 308.665 121.788V224.497H295.487V194.061C291.931 203.631 284.766 211.998 274.046 219.163C263.299 226.275 250.852 229.831 236.706 229.831C220.39 229.831 207.473 225.961 198.008 218.221C188.594 210.482 183.888 200.65 183.888 188.727Z" fill="#6F4323"/>
<path d="M360.604 224.497V71.3749H373.677V98.8824H373.991C376.972 90.5151 382.463 83.0368 390.412 76.3953C398.361 69.7014 408.611 66.3545 421.162 66.3545C443.257 66.3545 456.88 79.2977 462.057 105.158C462.476 102.726 463.678 99.6146 465.718 95.8493C467.81 92.084 470.791 87.8742 474.713 83.1937C478.609 78.5394 484.074 74.5649 491.134 71.2703C498.167 68.0018 505.986 66.3545 514.562 66.3545C529.466 66.3545 540.344 71.2441 547.195 80.9973C554.098 90.6982 557.549 105.419 557.549 125.135V224.497H543.848V127.227C543.848 110.91 541.573 98.5687 537.049 90.2013C532.578 81.834 524.002 77.6504 511.32 77.6504C498.769 77.6504 488.048 82.7754 479.21 93.0253C470.346 103.275 465.927 116.558 465.927 132.875V224.497H452.226V127.227C452.226 94.1758 441.061 77.6504 418.756 77.6504C405.63 77.6504 394.91 82.6185 386.542 92.5024C378.175 102.334 373.991 115.094 373.991 130.783V224.497H360.604Z" fill="#6F4323"/>
<path d="M611.59 30.7936V6.00537H634.6V30.7936H611.59ZM616.924 224.497V71.3751H630.103V224.497H616.924Z" fill="#6F4323"/>
<path d="M693.292 224.497V0.357422H707.099V224.497H693.292Z" fill="#6F4323"/>
<path d="M764.651 188.099C764.651 196.466 768.155 203.657 775.214 209.645C782.327 215.58 792.211 218.535 804.918 218.535C820.45 218.535 833.89 213.515 845.186 203.474C856.534 193.433 862.235 180.542 862.235 164.775V137.372C852.534 140.719 836.819 144.118 815.064 147.517C781.438 152.904 764.651 166.422 764.651 188.099ZM750.949 188.727C750.949 174.999 755.97 163.808 766.01 155.153C776.051 146.445 792.289 140.405 814.75 137.058C837.263 133.659 853.083 130.051 862.235 126.285V118.232C862.235 106.308 858.182 96.5291 850.102 88.8417C842.075 81.1803 830.805 77.3366 816.319 77.3366C806.749 77.3366 797.597 79.6115 788.811 84.135C780.078 88.6063 772.73 94.6988 766.743 102.439L757.538 95.5355C763.866 87.0375 772.207 80.056 782.536 74.6172C792.917 69.1262 804.082 66.3545 816.005 66.3545C836.296 66.3545 851.305 71.4533 861.084 81.6248C870.837 91.7441 875.727 105.132 875.727 121.788V224.497H862.548V194.061C858.992 203.631 851.828 211.998 841.107 219.163C830.36 226.275 817.914 229.831 803.768 229.831C787.452 229.831 774.535 225.961 765.069 218.221C755.656 210.482 750.949 200.65 750.949 188.727Z" fill="#6F4323"/>
<path d="M1010.02 224.497V9.35229H1026.44L1121.3 163.311L1147.03 205.148H1148.18C1146.77 188.831 1146.09 170.606 1146.09 150.446V9.35229H1160.11V224.497H1143.37L1046.1 66.8776L1022.88 28.7017H1021.94C1023.12 47.1883 1023.72 66.6161 1023.72 86.9592V224.497H1010.02Z" fill="#6F4323"/>
<path d="M1222.48 188.099C1222.48 196.466 1225.98 203.657 1233.04 209.645C1240.15 215.58 1250.04 218.535 1262.75 218.535C1278.28 218.535 1291.72 213.515 1303.01 203.474C1314.36 193.433 1320.06 180.542 1320.06 164.775V137.372C1310.36 140.719 1294.65 144.118 1272.89 147.517C1239.27 152.904 1222.48 166.422 1222.48 188.099ZM1208.78 188.727C1208.78 174.999 1213.8 163.808 1223.84 155.153C1233.88 146.445 1250.12 140.405 1272.58 137.058C1295.09 133.659 1310.91 130.051 1320.06 126.285V118.232C1320.06 106.308 1316.01 96.5291 1307.93 88.8417C1299.9 81.1803 1288.63 77.3366 1274.15 77.3366C1264.58 77.3366 1255.42 79.6115 1246.64 84.135C1237.91 88.6063 1230.56 94.6988 1224.57 102.439L1215.37 95.5355C1221.69 87.0375 1230.04 80.056 1240.36 74.6172C1250.74 69.1262 1261.91 66.3545 1273.83 66.3545C1294.12 66.3545 1309.13 71.4533 1318.91 81.6248C1328.66 91.7441 1333.55 105.132 1333.55 121.788V224.497H1320.38V194.061C1316.82 203.631 1309.66 211.998 1298.93 219.163C1288.19 226.275 1275.74 229.831 1261.6 229.831C1245.28 229.831 1232.36 225.961 1222.9 218.221C1213.48 210.482 1208.78 200.65 1208.78 188.727Z" fill="#6F4323"/>
<path d="M1371.48 197.617L1381.83 191.655C1393.18 209.593 1409.44 218.535 1430.57 218.535C1443.67 218.535 1454.31 215.816 1462.47 210.377C1470.63 204.886 1474.71 197.565 1474.71 188.413C1474.71 184.804 1474.19 181.588 1473.14 178.79C1472.15 176.019 1470.16 173.43 1467.18 171.051C1464.25 168.697 1461.77 166.815 1459.75 165.403C1457.79 164.017 1454.16 162.343 1448.88 160.382C1443.57 158.369 1439.78 156.983 1437.47 156.199C1435.23 155.362 1430.73 153.976 1423.98 152.015C1417 149.792 1411.12 147.701 1406.31 145.739C1401.55 143.726 1396.53 140.981 1391.25 137.477C1386.02 133.999 1382.04 129.737 1379.32 124.717C1376.65 119.644 1375.35 113.813 1375.35 107.25C1375.35 94.6988 1380.47 84.7626 1390.72 77.4412C1400.97 70.0675 1414.26 66.3545 1430.57 66.3545C1442.5 66.3545 1453.27 69.3615 1462.89 75.3494C1472.57 81.2849 1479.68 88.5279 1484.23 97.1044L1474.71 103.066C1470.32 95.6924 1464.25 89.6261 1456.51 84.8672C1448.77 80.056 1440.12 77.6504 1430.57 77.6504C1417.81 77.6504 1407.69 80.422 1400.24 85.9131C1392.76 91.3519 1389.05 98.5425 1389.05 107.459C1389.05 117.029 1392.87 124.481 1400.55 129.842C1408.22 135.228 1418.7 139.725 1432.04 143.334C1439.78 145.504 1446.31 147.596 1451.7 149.609C1457.06 151.57 1462.81 154.29 1468.96 157.767C1475.15 161.271 1479.89 165.612 1483.18 170.841C1486.45 176.019 1488.1 181.876 1488.1 188.413C1488.1 200.127 1483.08 209.959 1473.04 217.908C1463 225.857 1448.82 229.831 1430.57 229.831C1403.85 229.831 1384.16 219.11 1371.48 197.617Z" fill="#6F4323"/>
<path d="M1529.29 188.099C1529.29 196.466 1532.79 203.657 1539.85 209.645C1546.96 215.58 1556.85 218.535 1569.56 218.535C1585.09 218.535 1598.53 213.515 1609.82 203.474C1621.17 193.433 1626.87 180.542 1626.87 164.775V137.372C1617.17 140.719 1601.46 144.118 1579.7 147.517C1546.08 152.904 1529.29 166.422 1529.29 188.099ZM1515.59 188.727C1515.59 174.999 1520.61 163.808 1530.65 155.153C1540.69 146.445 1556.93 140.405 1579.39 137.058C1601.9 133.659 1617.72 130.051 1626.87 126.285V118.232C1626.87 106.308 1622.82 96.5291 1614.74 88.8417C1606.71 81.1803 1595.44 77.3366 1580.96 77.3366C1571.39 77.3366 1562.23 79.6115 1553.45 84.135C1544.72 88.6063 1537.37 94.6988 1531.38 102.439L1522.18 95.5355C1528.5 87.0375 1536.85 80.056 1547.17 74.6172C1557.55 69.1262 1568.72 66.3545 1580.64 66.3545C1600.93 66.3545 1615.94 71.4533 1625.72 81.6248C1635.47 91.7441 1640.36 105.132 1640.36 121.788V224.497H1627.19V194.061C1623.63 203.631 1616.47 211.998 1605.74 219.163C1595 226.275 1582.55 229.831 1568.41 229.831C1552.09 229.831 1539.17 225.961 1529.71 218.221C1520.29 210.482 1515.59 200.65 1515.59 188.727Z" fill="#6F4323"/>
<path d="M1692.3 224.497V71.3749H1705.06V97.9411C1707.83 90.2013 1713.01 83.0368 1720.54 76.3953C1728.13 69.7014 1738.22 66.3545 1750.77 66.3545C1759.69 66.3545 1767.35 67.8188 1773.78 70.7473V82.9845C1766.59 79.8468 1758.93 78.2779 1750.77 78.2779C1736.81 78.2779 1725.8 83.5075 1717.72 93.9666C1709.69 104.373 1705.69 117.709 1705.69 134.025V224.497H1692.3Z" fill="#6F4323"/>
<path d="M591.861 437.947C588.514 437.947 585.507 437.162 582.866 435.646C580.199 434.051 578.16 431.933 576.695 429.265C575.283 426.625 574.604 423.696 574.604 420.48C574.604 417.342 575.336 414.466 576.8 411.799C578.317 409.158 580.382 407.066 582.971 405.523C585.612 404.007 588.566 403.222 591.861 403.222C594.842 403.222 597.614 403.902 600.124 405.209C602.634 406.465 604.621 408.295 606.086 410.648L604.412 411.903C602.948 409.759 601.117 408.112 598.973 406.987C596.803 405.889 594.424 405.314 591.861 405.314C589.142 405.314 586.632 405.994 584.331 407.301C582.03 408.635 580.199 410.491 578.892 412.845C577.558 415.146 576.905 417.734 576.905 420.584C576.905 423.513 577.558 426.18 578.892 428.533C580.199 430.834 582.03 432.665 584.331 433.972C586.632 435.227 589.168 435.855 591.966 435.855C594.528 435.855 596.908 435.332 599.078 434.286C601.222 433.188 603.079 431.566 604.621 429.475L606.295 430.625C604.752 432.926 602.686 434.757 600.124 436.064C597.614 437.319 594.842 437.947 591.861 437.947Z" fill="#6F4323"/>
<path d="M622.444 404.059C626.131 404.059 628.85 404.869 630.602 406.464C632.328 408.007 633.217 410.073 633.217 412.635C633.217 414.466 632.746 415.982 631.857 417.237C630.942 418.492 629.661 419.486 627.987 420.166C626.314 420.872 624.248 421.212 621.816 421.212L634.158 437.11H631.439L619.202 421.212H615.75V437.11H613.554V404.059H622.444ZM621.712 419.12C624.693 419.12 626.968 418.597 628.51 417.551C630.105 416.453 630.916 414.806 630.916 412.635C630.916 410.7 630.288 409.132 629.033 407.929C627.778 406.752 625.686 406.151 622.758 406.151H615.75V419.12H621.712Z" fill="#6F4323"/>
<path d="M662.199 404.059H664.396V437.11H663.977L642.327 409.707V437.11H640.13V404.059H640.549L662.199 431.566V404.059Z" fill="#6F4323"/>
<path d="M683.479 412.112C683.95 410.387 684.682 408.844 685.676 407.51C686.643 406.203 687.872 405.157 689.336 404.373C690.801 403.614 692.474 403.222 694.357 403.222C696.239 403.222 697.939 403.641 699.482 404.477C700.998 405.314 702.201 406.517 703.038 408.033C703.875 409.498 704.293 411.171 704.293 413.054C704.293 414.387 704.031 415.642 703.561 416.819C703.142 418.022 702.463 419.199 701.574 420.375C700.737 421.5 699.586 422.781 698.122 424.245L687.454 435.018H704.92V437.11H682.747V437.005L696.135 423.408C697.651 421.892 698.854 420.584 699.691 419.538C700.528 418.44 701.155 417.394 701.574 416.401C701.992 415.355 702.201 414.257 702.201 413.054C702.201 411.668 701.835 410.387 701.155 409.184C700.449 407.929 699.508 406.961 698.331 406.255C697.128 405.575 695.821 405.209 694.357 405.209C692.108 405.209 690.225 405.915 688.709 407.301C687.245 408.635 686.146 410.491 685.466 412.845L683.479 412.112Z" fill="#6F4323"/>
<path d="M718.783 406.151H714.077L715.332 404.059H720.98V437.11H718.783V406.151Z" fill="#6F4323"/>
<path d="M745.511 417.865C747.394 417.865 749.067 418.336 750.532 419.225C752.048 420.061 753.199 421.264 753.983 422.781C754.82 424.324 755.238 425.997 755.238 427.801C755.238 429.762 754.768 431.514 753.879 433.031C752.963 434.574 751.734 435.802 750.218 436.691C748.675 437.528 747.002 437.947 745.197 437.947C743.236 437.947 741.484 437.476 739.968 436.587C738.425 435.698 737.248 434.469 736.412 432.926C735.627 431.41 735.261 429.736 735.261 427.906C735.261 426.389 735.523 424.847 736.098 423.304C736.726 421.787 737.667 420.061 738.922 418.179L748.858 403.431L750.636 404.582L740.909 419.016C742.295 418.257 743.838 417.865 745.511 417.865ZM745.302 435.855C746.688 435.855 747.969 435.515 749.172 434.809C750.427 434.129 751.394 433.188 752.1 431.985C752.78 430.73 753.146 429.344 753.146 427.801C753.146 426.285 752.78 424.925 752.1 423.722C751.473 422.545 750.558 421.604 749.381 420.898C748.178 420.218 746.819 419.852 745.302 419.852C743.759 419.852 742.4 420.244 741.223 421.003C740.02 421.709 739.079 422.676 738.399 423.931C737.693 425.134 737.353 426.442 737.353 427.906C737.353 429.449 737.693 430.808 738.399 431.985C739.157 433.188 740.125 434.129 741.328 434.809C742.504 435.515 743.838 435.855 745.302 435.855Z" fill="#6F4323"/>
<path d="M774.749 421.839C774.122 422.258 773.416 422.624 772.657 422.885C771.873 423.173 771.01 423.304 770.043 423.304C768.16 423.304 766.434 422.859 764.918 421.944C763.453 421.055 762.303 419.852 761.466 418.388C760.629 416.871 760.211 415.198 760.211 413.368C760.211 411.433 760.655 409.681 761.571 408.138C762.46 406.543 763.689 405.314 765.231 404.477C766.748 403.641 768.474 403.222 770.356 403.222C772.291 403.222 774.017 403.693 775.481 404.582C776.998 405.497 778.201 406.726 779.037 408.243C779.874 409.785 780.293 411.459 780.293 413.263C780.293 414.806 779.979 416.348 779.351 417.865C778.724 419.408 777.782 421.081 776.527 422.885L766.591 437.633L764.918 436.482L774.749 421.839ZM770.252 421.212C771.716 421.212 773.023 420.872 774.226 420.166C775.481 419.486 776.423 418.545 777.05 417.342C777.73 416.087 778.096 414.727 778.096 413.263C778.096 411.746 777.73 410.387 777.05 409.184C776.344 407.929 775.403 406.987 774.226 406.36C773.023 405.68 771.716 405.314 770.252 405.314C768.787 405.314 767.454 405.68 766.277 406.36C765.074 407.066 764.133 408.033 763.453 409.288C762.747 410.491 762.407 411.851 762.407 413.368C762.407 414.91 762.721 416.27 763.349 417.447C764.029 418.649 764.97 419.591 766.173 420.271C767.349 420.898 768.709 421.212 770.252 421.212Z" fill="#6F4323"/>
<path d="M785.37 412.112C785.841 410.387 786.573 408.844 787.566 407.51C788.534 406.203 789.763 405.157 791.227 404.373C792.691 403.614 794.365 403.222 796.247 403.222C798.13 403.222 799.83 403.641 801.372 404.477C802.889 405.314 804.092 406.517 804.928 408.033C805.765 409.498 806.184 411.171 806.184 413.054C806.184 414.387 805.922 415.642 805.451 416.819C805.033 418.022 804.353 419.199 803.464 420.375C802.627 421.5 801.477 422.781 800.013 424.245L789.344 435.018H806.811V437.11H784.638V437.005L798.025 423.408C799.542 421.892 800.745 420.584 801.582 419.538C802.418 418.44 803.046 417.394 803.464 416.401C803.883 415.355 804.092 414.257 804.092 413.054C804.092 411.668 803.726 410.387 803.046 409.184C802.34 407.929 801.398 406.961 800.222 406.255C799.019 405.575 797.712 405.209 796.247 405.209C793.999 405.209 792.116 405.915 790.599 407.301C789.135 408.635 788.037 410.491 787.357 412.845L785.37 412.112Z" fill="#6F4323"/>
<path d="M837.339 403.222V446H835.143V403.222H837.339Z" fill="#6F4323"/>
<path d="M890.075 404.059H892.271V437.11H891.853L870.202 409.707V437.11H868.006V404.059H868.424L890.075 431.566V404.059Z" fill="#6F4323"/>
<path d="M911.424 437.946C909.175 437.946 907.24 437.45 905.567 436.482C903.946 435.515 902.691 434.077 901.801 432.194C900.965 430.311 900.546 428.115 900.546 425.605V404.059H902.743V426.128C902.743 428.089 903.083 429.841 903.789 431.357C904.469 432.821 905.462 433.946 906.717 434.704C908.025 435.489 909.594 435.855 911.424 435.855C913.228 435.855 914.771 435.489 916.026 434.704C917.281 433.867 918.248 432.717 918.954 431.253C919.634 429.788 920 428.115 920 426.232V404.059H922.197V425.605C922.197 428.193 921.726 430.416 920.837 432.299C920 434.129 918.745 435.515 917.072 436.482C915.451 437.45 913.568 437.946 911.424 437.946Z" fill="#6F4323"/>
<path d="M934.943 406.151H926.681V404.059H945.298V406.151H937.14V437.11H934.943V406.151Z" fill="#6F4323"/>
<path d="M958.832 404.059C962.519 404.059 965.238 404.869 966.99 406.464C968.716 408.007 969.605 410.073 969.605 412.635C969.605 414.466 969.134 415.982 968.245 417.237C967.33 418.492 966.048 419.486 964.375 420.166C962.702 420.872 960.636 421.212 958.204 421.212L970.546 437.11H967.827L955.589 421.212H952.138V437.11H949.941V404.059H958.832ZM958.1 419.12C961.08 419.12 963.355 418.597 964.898 417.551C966.493 416.453 967.304 414.806 967.304 412.635C967.304 410.7 966.676 409.132 965.421 407.929C964.166 406.752 962.074 406.151 959.145 406.151H952.138V419.12H958.1Z" fill="#6F4323"/>
<path d="M976.518 404.059H978.714V437.11H976.518V404.059Z" fill="#6F4323"/>
<path d="M1002.83 437.947C999.481 437.947 996.474 437.162 993.833 435.646C991.166 434.051 989.126 431.933 987.662 429.265C986.25 426.625 985.57 423.696 985.57 420.48C985.57 417.342 986.302 414.466 987.767 411.799C989.283 409.158 991.349 407.066 993.938 405.523C996.579 404.007 999.533 403.222 1002.83 403.222C1005.81 403.222 1008.58 403.902 1011.09 405.209C1013.6 406.465 1015.59 408.295 1017.05 410.648L1015.38 411.903C1013.91 409.759 1012.08 408.112 1009.94 406.987C1007.77 405.889 1005.39 405.314 1002.83 405.314C1000.11 405.314 997.598 405.994 995.297 407.301C992.996 408.635 991.166 410.491 989.859 412.845C988.525 415.146 987.871 417.734 987.871 420.584C987.871 423.513 988.525 426.18 989.859 428.533C991.166 430.834 992.996 432.665 995.297 433.972C997.598 435.227 1000.13 435.855 1002.93 435.855C1005.49 435.855 1007.87 435.332 1010.04 434.286C1012.19 433.188 1014.05 431.566 1015.59 429.475L1017.26 430.625C1015.72 432.926 1013.65 434.757 1011.09 436.064C1008.58 437.319 1005.81 437.947 1002.83 437.947Z" fill="#6F4323"/>
<path d="M1024.52 404.059H1026.72V437.11H1024.52V404.059Z" fill="#6F4323"/>
<path d="M1050.73 437.947C1047.43 437.947 1044.48 437.162 1041.84 435.646C1039.25 434.129 1037.23 432.037 1035.77 429.37C1034.3 426.729 1033.57 423.801 1033.57 420.584C1033.57 417.447 1034.3 414.57 1035.77 411.903C1037.23 409.262 1039.25 407.17 1041.84 405.628C1044.48 404.033 1047.4 403.222 1050.62 403.222C1053.89 403.222 1056.82 404.007 1059.41 405.523C1062.05 407.066 1064.11 409.158 1065.58 411.799C1067.09 414.466 1067.88 417.394 1067.88 420.584C1067.88 423.801 1067.15 426.729 1065.68 429.37C1064.22 432.037 1062.15 434.129 1059.51 435.646C1056.84 437.162 1053.92 437.947 1050.73 437.947ZM1050.62 435.855C1053.47 435.855 1056.01 435.201 1058.26 433.867C1060.56 432.56 1062.34 430.73 1063.59 428.429C1064.9 426.075 1065.58 423.461 1065.58 420.584C1065.58 417.734 1064.9 415.146 1063.59 412.845C1062.34 410.491 1060.56 408.635 1058.26 407.301C1055.96 405.994 1053.39 405.314 1050.62 405.314C1047.9 405.314 1045.39 406.02 1043.09 407.406C1040.84 408.739 1039.06 410.596 1037.76 412.949C1036.5 415.25 1035.87 417.813 1035.87 420.584C1035.87 423.461 1036.5 426.075 1037.76 428.429C1039.06 430.73 1040.84 432.56 1043.09 433.867C1045.39 435.201 1047.9 435.855 1050.62 435.855Z" fill="#6F4323"/>
<path d="M1096.71 404.059H1098.9V437.11H1098.49L1076.84 409.707V437.11H1074.64V404.059H1075.06L1096.71 431.566V404.059Z" fill="#6F4323"/>
<path d="M1107.28 404.059H1109.48V437.11H1107.28V404.059Z" fill="#6F4323"/>
<path d="M1124.81 437.947C1122.56 437.947 1120.65 437.371 1119.06 436.273C1117.51 435.175 1116.15 433.528 1114.98 431.357L1116.86 430.311C1117.91 432.142 1119.06 433.528 1120.31 434.495C1121.57 435.41 1123.03 435.855 1124.7 435.855C1125.96 435.855 1127.06 435.593 1128.05 435.018C1129.1 434.39 1129.88 433.606 1130.46 432.612C1131.08 431.645 1131.4 430.573 1131.4 429.37C1131.4 428.115 1131.08 427.017 1130.46 426.023C1129.83 425.056 1128.94 424.114 1127.84 423.199C1126.8 422.232 1125.04 420.794 1122.61 418.911C1121.28 417.943 1120.23 417.081 1119.47 416.296C1118.69 415.459 1118.11 414.596 1117.7 413.681C1117.33 412.792 1117.17 411.746 1117.17 410.544C1117.17 409.158 1117.49 407.903 1118.11 406.778C1118.79 405.68 1119.71 404.791 1120.83 404.163C1122.01 403.536 1123.34 403.222 1124.81 403.222C1126.69 403.222 1128.29 403.719 1129.62 404.686C1130.93 405.602 1132.18 406.857 1133.38 408.452L1131.61 409.811C1130.56 408.347 1129.51 407.275 1128.47 406.569C1127.42 405.811 1126.17 405.419 1124.7 405.419C1123.58 405.419 1122.61 405.68 1121.78 406.151C1120.99 406.569 1120.42 407.17 1120 407.929C1119.58 408.713 1119.37 409.576 1119.37 410.544C1119.37 411.799 1119.71 412.949 1120.42 413.995C1121.17 414.989 1122.35 416.035 1123.97 417.133C1126.32 418.885 1128.16 420.323 1129.41 421.421C1130.72 422.545 1131.76 423.774 1132.55 425.082C1133.31 426.337 1133.7 427.749 1133.7 429.265C1133.7 430.808 1133.31 432.246 1132.55 433.554C1131.76 434.887 1130.72 435.959 1129.41 436.796C1128.08 437.554 1126.53 437.947 1124.81 437.947Z" fill="#6F4323"/>
<path d="M1144.84 406.151H1136.58V404.059H1155.2V406.151H1147.04V437.11H1144.84V406.151Z" fill="#6F4323"/>
<path d="M1181.29 437.11L1176.38 425.918H1160.79L1155.77 437.11H1153.47L1168.43 404.059H1168.95L1183.59 437.11H1181.29ZM1161.73 423.827H1175.44L1168.64 408.452L1161.73 423.827Z" fill="#6F4323"/>
<path d="M277.558 343.28L270.132 326.44H246.703L239.173 343.28H235.721L258.104 293.599H258.941L281.009 343.28H277.558ZM248.168 323.407H268.772L258.522 300.292L248.168 323.407Z" fill="#6F4323"/>
<path d="M289.322 292.448V343.28H286.185V292.448H289.322Z" fill="#6F4323"/>
<path d="M301.447 298.933C300.61 298.933 299.904 298.671 299.355 298.096C298.78 297.469 298.519 296.789 298.519 296.004C298.519 295.168 298.78 294.488 299.355 293.912C299.983 293.363 300.663 293.076 301.447 293.076C302.205 293.076 302.859 293.363 303.434 293.912C304.062 294.488 304.376 295.168 304.376 296.004C304.376 296.789 304.062 297.469 303.434 298.096C302.859 298.671 302.205 298.933 301.447 298.933ZM299.878 306.568H303.016V343.28H299.878V306.568Z" fill="#6F4323"/>
<path d="M317.498 306.568V314.099C318.805 311.458 320.636 309.392 322.937 307.928C325.29 306.411 327.879 305.627 330.677 305.627C333.814 305.627 336.272 306.568 338.103 308.451C339.985 310.281 341.267 312.608 341.973 315.458C343.149 312.608 344.901 310.281 347.202 308.451C349.555 306.568 352.327 305.627 355.465 305.627C359.779 305.627 362.995 307.065 365.087 309.915C367.231 312.791 368.33 316.896 368.33 322.257V343.28H365.192V321.838C365.192 313 361.845 308.555 355.151 308.555C352.641 308.555 350.444 309.261 348.562 310.647C346.731 312.059 345.319 313.942 344.274 316.295C343.28 318.596 342.809 321.106 342.809 323.826V343.28H339.671V322.78C339.671 313.314 336.534 308.555 330.258 308.555C327.879 308.555 325.709 309.235 323.774 310.543C321.812 311.876 320.27 313.733 319.172 316.086C318.047 318.387 317.498 321.08 317.498 324.139V343.28H314.36V306.568H317.498Z" fill="#6F4323"/>
<path d="M395.862 344.116C392.018 344.116 388.671 343.28 385.821 341.606C383.023 339.933 380.853 337.632 379.337 334.703C377.872 331.722 377.14 328.402 377.14 324.767C377.14 321.577 377.872 318.491 379.337 315.563C380.853 312.634 383.023 310.281 385.821 308.451C388.671 306.568 391.992 305.627 395.757 305.627C399.235 305.627 402.399 306.463 405.275 308.137C408.125 309.758 410.4 312.007 412.074 314.935C413.747 317.864 414.584 321.159 414.584 324.767V325.185H380.382C380.382 328.323 381.036 331.121 382.37 333.553C383.677 335.932 385.507 337.815 387.808 339.201C390.162 340.534 392.855 341.188 395.862 341.188C399.418 341.188 402.373 340.403 404.752 338.782C407.106 337.109 409.093 334.782 410.714 331.775L413.329 333.134C411.655 336.638 409.302 339.357 406.321 341.292C403.314 343.175 399.836 344.116 395.862 344.116ZM411.028 322.361C410.662 319.38 409.72 316.87 408.204 314.831C406.74 312.739 404.883 311.17 402.66 310.124C400.49 309.078 398.189 308.555 395.757 308.555C393.247 308.555 390.946 309.078 388.854 310.124C386.763 311.17 384.984 312.739 383.52 314.831C382.056 316.87 381.062 319.38 380.592 322.361H411.028Z" fill="#6F4323"/>
<path d="M427.126 306.568V314.622C428.851 311.641 430.995 309.392 433.506 307.928C436.016 306.411 438.761 305.627 441.768 305.627C446.161 305.627 449.534 307.091 451.914 310.02C454.267 312.948 455.47 317.236 455.47 322.884V343.28H452.332V323.198C452.332 318.387 451.443 314.726 449.717 312.216C447.965 309.706 445.168 308.451 441.35 308.451C438.761 308.451 436.382 309.157 434.238 310.543C432.067 311.876 430.316 313.733 429.008 316.086C427.753 318.387 427.126 321.002 427.126 323.93V343.28H423.988V306.568H427.126Z" fill="#6F4323"/>
<path d="M469.501 309.287H462.389V306.568H469.501V292.762H472.639V306.568H480.901V309.287H472.639V343.28H469.501V309.287Z" fill="#6F4323"/>
<path d="M503.035 344.116C499.401 344.116 496.159 343.253 493.308 341.502C490.432 339.697 488.21 337.318 486.615 334.389C484.993 331.409 484.209 328.218 484.209 324.872C484.209 321.472 484.993 318.282 486.615 315.354C488.21 312.425 490.432 310.098 493.308 308.346C496.237 306.542 499.505 305.627 503.14 305.627C506.696 305.627 509.834 306.516 512.553 308.241C515.325 309.915 517.495 312.373 519.038 315.563V306.568H522.176V343.28H519.038V334.703C517.495 337.632 515.325 339.933 512.553 341.606C509.834 343.28 506.644 344.116 503.035 344.116ZM503.245 341.292C506.016 341.292 508.631 340.665 511.089 339.41C513.599 338.102 515.586 336.22 517.051 333.762C518.515 331.33 519.247 328.428 519.247 325.081C519.247 322.231 518.567 319.537 517.26 317.027C516.005 314.465 514.148 312.399 511.717 310.856C509.259 309.34 506.435 308.555 503.245 308.555C500.107 308.555 497.309 309.34 494.877 310.856C492.498 312.399 490.641 314.412 489.334 316.923C488.079 319.433 487.451 322.126 487.451 324.976C487.451 327.905 488.105 330.624 489.439 333.134C490.824 335.644 492.707 337.632 495.086 339.096C497.518 340.56 500.238 341.292 503.245 341.292Z" fill="#6F4323"/>
<path d="M536.821 306.568V314.622C538.547 311.641 540.691 309.392 543.201 307.928C545.711 306.411 548.457 305.627 551.464 305.627C555.856 305.627 559.23 307.091 561.609 310.02C563.962 312.948 565.165 317.236 565.165 322.884V343.28H562.027V323.198C562.027 318.387 561.138 314.726 559.413 312.216C557.661 309.706 554.863 308.451 551.045 308.451C548.457 308.451 546.077 309.157 543.933 310.543C541.763 311.876 540.011 313.733 538.703 316.086C537.448 318.387 536.821 321.002 536.821 323.93V343.28H533.683V306.568H536.821Z" fill="#6F4323"/>
<path d="M592.756 344.116C589.122 344.116 585.879 343.254 583.029 341.502C580.153 339.697 577.93 337.318 576.335 334.389C574.714 331.409 573.93 328.219 573.93 324.872C573.93 321.472 574.714 318.282 576.335 315.354C577.93 312.425 580.153 310.098 583.029 308.346C585.958 306.542 589.226 305.627 592.861 305.627C596.417 305.627 599.555 306.516 602.274 308.242C605.046 309.915 607.216 312.373 608.759 315.563V292.448H611.896V343.28H608.759V334.703C607.216 337.632 605.046 339.933 602.274 341.606C599.555 343.28 596.365 344.116 592.756 344.116ZM592.965 341.292C595.737 341.292 598.352 340.665 600.81 339.41C603.32 338.102 605.307 336.22 606.771 333.762C608.236 331.33 608.968 328.428 608.968 325.081C608.968 322.231 608.288 319.537 606.981 317.027C605.726 314.465 603.869 312.399 601.437 310.856C598.979 309.34 596.155 308.555 592.965 308.555C589.828 308.555 587.03 309.34 584.598 310.856C582.219 312.399 580.362 314.412 579.055 316.923C577.8 319.433 577.172 322.126 577.172 324.976C577.172 327.905 577.826 330.624 579.159 333.134C580.545 335.645 582.428 337.632 584.807 339.096C587.239 340.56 589.958 341.292 592.965 341.292Z" fill="#6F4323"/>
<path d="M640.452 344.221C636.739 344.221 633.445 343.332 630.516 341.606C627.64 339.88 625.417 337.527 623.822 334.599C622.201 331.618 621.417 328.402 621.417 324.976C621.417 321.577 622.201 318.387 623.822 315.458C625.417 312.477 627.64 310.098 630.516 308.346C633.445 306.542 636.739 305.627 640.452 305.627C644.217 305.627 647.512 306.542 650.388 308.346C653.317 310.098 655.566 312.477 657.187 315.458C658.782 318.387 659.592 321.577 659.592 324.976C659.592 328.402 658.782 331.565 657.187 334.494C655.566 337.423 653.317 339.802 650.388 341.606C647.512 343.332 644.217 344.221 640.452 344.221ZM640.452 341.292C643.511 341.292 646.231 340.56 648.61 339.096C651.042 337.632 652.925 335.697 654.258 333.239C655.566 330.729 656.245 327.983 656.245 324.976C656.245 322.048 655.539 319.328 654.154 316.818C652.82 314.308 650.964 312.321 648.61 310.856C646.231 309.34 643.511 308.555 640.452 308.555C637.445 308.555 634.726 309.34 632.294 310.856C629.915 312.321 628.032 314.308 626.646 316.818C625.313 319.328 624.659 322.048 624.659 324.976C624.659 327.905 625.313 330.624 626.646 333.134C627.953 335.644 629.836 337.632 632.294 339.096C634.726 340.56 637.445 341.292 640.452 341.292Z" fill="#6F4323"/>
<path d="M704.007 344.116C700.163 344.116 696.816 343.28 693.966 341.606C691.168 339.933 688.998 337.632 687.481 334.703C686.017 331.722 685.285 328.402 685.285 324.767C685.285 321.577 686.017 318.491 687.481 315.563C688.998 312.634 691.168 310.281 693.966 308.451C696.816 306.568 700.137 305.627 703.902 305.627C707.38 305.627 710.544 306.463 713.42 308.137C716.27 309.758 718.545 312.007 720.218 314.935C721.892 317.864 722.728 321.159 722.728 324.767V325.185H688.527C688.527 328.323 689.181 331.121 690.514 333.553C691.822 335.932 693.652 337.815 695.953 339.201C698.306 340.534 701 341.188 704.007 341.188C707.563 341.188 710.517 340.403 712.897 338.782C715.25 337.109 717.237 334.782 718.859 331.775L721.473 333.134C719.8 336.638 717.447 339.357 714.466 341.292C711.459 343.175 707.981 344.116 704.007 344.116ZM719.172 322.361C718.806 319.38 717.865 316.87 716.348 314.831C714.884 312.739 713.028 311.17 710.805 310.124C708.635 309.078 706.334 308.555 703.902 308.555C701.392 308.555 699.091 309.078 696.999 310.124C694.907 311.17 693.129 312.739 691.665 314.831C690.2 316.87 689.207 319.38 688.736 322.361H719.172Z" fill="#6F4323"/>
<path d="M735.27 306.568V314.099C736.577 311.458 738.407 309.392 740.708 307.928C743.062 306.411 745.65 305.627 748.448 305.627C751.586 305.627 754.044 306.568 755.874 308.451C757.757 310.281 759.038 312.608 759.744 315.458C760.921 312.608 762.673 310.281 764.974 308.451C767.327 306.568 770.099 305.627 773.236 305.627C777.551 305.627 780.767 307.065 782.859 309.915C785.003 312.791 786.101 316.896 786.101 322.257V343.28H782.963V321.838C782.963 313 779.616 308.555 772.923 308.555C770.412 308.555 768.216 309.261 766.333 310.647C764.503 312.059 763.091 313.942 762.045 316.295C761.051 318.596 760.581 321.106 760.581 323.826V343.28H757.443V322.78C757.443 313.314 754.305 308.555 748.03 308.555C745.65 308.555 743.48 309.235 741.545 310.543C739.584 311.876 738.041 313.733 736.943 316.086C735.819 318.387 735.27 321.08 735.27 324.139V343.28H732.132V306.568H735.27Z" fill="#6F4323"/>
<path d="M813.948 344.221C810.235 344.221 806.94 343.332 804.012 341.606C801.135 339.88 798.913 337.527 797.318 334.599C795.697 331.618 794.912 328.402 794.912 324.976C794.912 321.577 795.697 318.387 797.318 315.458C798.913 312.477 801.135 310.098 804.012 308.346C806.94 306.542 810.235 305.627 813.948 305.627C817.713 305.627 821.008 306.542 823.884 308.346C826.813 310.098 829.061 312.477 830.682 315.458C832.277 318.387 833.088 321.577 833.088 324.976C833.088 328.402 832.277 331.565 830.682 334.494C829.061 337.423 826.813 339.802 823.884 341.606C821.008 343.332 817.713 344.221 813.948 344.221ZM813.948 341.292C817.007 341.292 819.726 340.56 822.106 339.096C824.538 337.632 826.42 335.697 827.754 333.239C829.061 330.729 829.741 327.983 829.741 324.976C829.741 322.048 829.035 319.328 827.649 316.818C826.316 314.308 824.459 312.321 822.106 310.856C819.726 309.34 817.007 308.555 813.948 308.555C810.941 308.555 808.221 309.34 805.79 310.856C803.41 312.321 801.528 314.308 800.142 316.818C798.808 319.328 798.154 322.048 798.154 324.976C798.154 327.905 798.808 330.624 800.142 333.134C801.449 335.644 803.332 337.632 805.79 339.096C808.221 340.56 810.941 341.292 813.948 341.292Z" fill="#6F4323"/>
<path d="M876.721 336.063C872.746 341.24 867.36 343.933 860.614 344.221L860.3 347.15C862.104 347.15 863.49 347.489 864.484 348.195C865.451 348.954 865.948 349.973 865.948 351.229C865.948 352.118 865.634 352.928 865.007 353.634C864.379 354.392 863.464 354.994 862.287 355.412C861.163 355.883 859.829 356.144 858.313 356.144C856.273 356.144 854.364 355.778 852.56 355.098L853.397 353.216C854.861 353.686 856.378 353.948 857.999 353.948C859.672 353.948 860.928 353.686 861.764 353.216C862.653 352.797 863.124 352.196 863.124 351.438C863.124 350.81 862.836 350.287 862.287 349.869C861.712 349.503 860.928 349.346 859.882 349.346C859.176 349.346 858.417 349.451 857.581 349.66L858.313 344.221C854.757 343.933 851.619 342.94 848.9 341.188C846.232 339.384 844.193 337.056 842.729 334.18C841.264 331.33 840.532 328.271 840.532 324.976C840.532 321.498 841.317 318.282 842.938 315.354C844.533 312.373 846.808 309.993 849.736 308.241C852.717 306.516 856.064 305.627 859.777 305.627C863.385 305.627 866.602 306.359 869.399 307.823C872.171 309.235 874.446 311.249 876.198 313.889L874.002 315.877C872.328 313.445 870.288 311.641 867.935 310.438C865.556 309.183 862.81 308.555 859.672 308.555C856.587 308.555 853.841 309.287 851.41 310.752C849.03 312.216 847.148 314.256 845.762 316.818C844.428 319.328 843.775 322.048 843.775 324.976C843.775 327.983 844.428 330.729 845.762 333.239C847.148 335.697 849.056 337.632 851.514 339.096C853.946 340.56 856.665 341.292 859.672 341.292C862.81 341.292 865.582 340.717 868.04 339.514C870.472 338.259 872.59 336.481 874.42 334.18L876.721 336.063Z" fill="#6F4323"/>
<path d="M902.009 344.221C898.296 344.221 895.001 343.332 892.073 341.606C889.196 339.88 886.974 337.527 885.379 334.599C883.758 331.618 882.973 328.402 882.973 324.976C882.973 321.577 883.758 318.387 885.379 315.458C886.974 312.477 889.196 310.098 892.073 308.346C895.001 306.542 898.296 305.627 902.009 305.627C905.774 305.627 909.069 306.542 911.945 308.346C914.874 310.098 917.122 312.477 918.743 315.458C920.338 318.387 921.149 321.577 921.149 324.976C921.149 328.402 920.338 331.565 918.743 334.494C917.122 337.423 914.874 339.802 911.945 341.606C909.069 343.332 905.774 344.221 902.009 344.221ZM902.009 341.292C905.068 341.292 907.787 340.56 910.167 339.096C912.599 337.632 914.481 335.697 915.815 333.239C917.122 330.729 917.802 327.983 917.802 324.976C917.802 322.048 917.096 319.328 915.71 316.818C914.377 314.308 912.52 312.321 910.167 310.856C907.787 309.34 905.068 308.555 902.009 308.555C899.002 308.555 896.282 309.34 893.851 310.856C891.471 312.321 889.589 314.308 888.203 316.818C886.869 319.328 886.215 322.048 886.215 324.976C886.215 327.905 886.869 330.624 888.203 333.134C889.51 335.644 891.393 337.632 893.851 339.096C896.282 340.56 899.002 341.292 902.009 341.292ZM906.611 298.514C905.696 298.514 904.859 298.384 904.101 298.096C903.395 297.835 902.532 297.442 901.486 296.946C900.78 296.606 900.074 296.318 899.394 296.109C898.766 295.847 898.165 295.691 897.616 295.691C896.701 295.691 895.864 295.9 895.106 296.318C894.321 296.736 893.563 297.312 892.805 297.992L891.236 296.004C892.073 295.037 893.014 294.279 894.06 293.703C895.158 293.076 896.309 292.762 897.511 292.762C898.4 292.762 899.211 292.919 899.917 293.18C900.675 293.468 901.59 293.86 902.636 294.331C903.316 294.697 903.996 295.011 904.624 295.272C905.303 295.481 905.983 295.586 906.611 295.586C907.448 295.586 908.206 295.455 908.912 295.168C909.67 294.828 910.428 294.331 911.213 293.703L912.782 295.9C911.736 296.815 910.716 297.469 909.749 297.887C908.833 298.305 907.787 298.514 906.611 298.514Z" fill="#6F4323"/>
<path d="M947.315 344.116C943.471 344.116 940.124 343.28 937.274 341.606C934.477 339.933 932.306 337.632 930.79 334.703C929.325 331.722 928.593 328.402 928.593 324.767C928.593 321.577 929.325 318.491 930.79 315.563C932.306 312.634 934.477 310.281 937.274 308.451C940.124 306.568 943.445 305.627 947.211 305.627C950.688 305.627 953.852 306.463 956.728 308.137C959.578 309.758 961.853 312.007 963.527 314.935C965.2 317.864 966.037 321.159 966.037 324.767V325.185H931.836C931.836 328.323 932.489 331.121 933.823 333.553C935.13 335.932 936.961 337.815 939.262 339.201C941.615 340.534 944.308 341.188 947.315 341.188C950.871 341.188 953.826 340.403 956.205 338.782C958.559 337.109 960.546 334.782 962.167 331.775L964.782 333.134C963.108 336.638 960.755 339.357 957.774 341.292C954.767 343.175 951.29 344.116 947.315 344.116ZM962.481 322.361C962.115 319.38 961.174 316.87 959.657 314.831C958.193 312.739 956.336 311.17 954.114 310.124C951.943 309.078 949.642 308.555 947.211 308.555C944.7 308.555 942.399 309.078 940.308 310.124C938.216 311.17 936.438 312.739 934.973 314.831C933.509 316.87 932.515 319.38 932.045 322.361H962.481Z" fill="#6F4323"/>
<path d="M983.008 344.221C980.76 344.221 978.72 343.75 976.838 342.861C974.955 341.972 973.334 340.717 972.026 339.096L974.014 336.9C975.321 338.364 976.681 339.462 978.093 340.142C979.557 340.848 981.126 341.188 982.799 341.188C984.316 341.188 985.676 340.926 986.878 340.351C988.055 339.802 988.97 338.991 989.598 337.945C990.278 336.847 990.644 335.592 990.644 334.18C990.644 333.134 990.461 332.245 990.121 331.461C989.755 330.703 989.179 329.944 988.343 329.16C987.506 328.402 986.303 327.591 984.787 326.754C981.989 325.238 979.871 323.983 978.406 322.989C976.942 321.943 975.792 320.792 974.955 319.537C974.17 318.23 973.804 316.661 973.804 314.831C973.804 313.027 974.223 311.432 975.06 310.02C975.949 308.634 977.151 307.562 978.616 306.777C980.132 306.019 981.806 305.627 983.636 305.627C985.519 305.627 987.218 306.019 988.761 306.777C990.356 307.483 991.925 308.608 993.468 310.124L991.376 312.216C990.173 310.961 988.97 310.072 987.715 309.497C986.46 308.869 985.1 308.555 983.636 308.555C982.224 308.555 981.021 308.843 979.975 309.392C978.982 309.967 978.197 310.726 977.57 311.693C976.994 312.608 976.733 313.628 976.733 314.726C976.733 316.19 977.177 317.498 978.093 318.596C978.982 319.642 980.42 320.688 982.381 321.734C985.231 323.407 987.401 324.767 988.866 325.813C990.382 326.859 991.533 328.062 992.317 329.369C993.154 330.624 993.572 332.167 993.572 333.971C993.572 335.801 993.154 337.501 992.317 339.096C991.533 340.639 990.33 341.894 988.656 342.861C987.035 343.75 985.153 344.221 983.008 344.221Z" fill="#6F4323"/>
<path d="M999.956 352.275L1004.98 335.854L1009.58 337.423L1001.94 353.007L999.956 352.275Z" fill="#6F4323"/>
<path d="M1042.79 306.568V314.622C1044.52 311.641 1046.66 309.392 1049.17 307.928C1051.68 306.411 1054.43 305.627 1057.44 305.627C1061.83 305.627 1065.2 307.091 1067.58 310.02C1069.93 312.948 1071.14 317.236 1071.14 322.884V343.28H1068V323.198C1068 318.387 1067.11 314.726 1065.38 312.216C1063.63 309.706 1060.84 308.451 1057.02 308.451C1054.43 308.451 1052.05 309.157 1049.91 310.543C1047.73 311.876 1045.98 313.733 1044.68 316.086C1043.42 318.387 1042.79 321.002 1042.79 323.93V343.28H1039.66V306.568H1042.79Z" fill="#6F4323"/>
<path d="M1097.05 344.221C1091.75 344.221 1087.77 342.652 1085.13 339.514C1082.46 336.377 1081.16 331.749 1081.16 325.604V306.568H1084.29V326.545C1084.29 331.435 1085.37 335.095 1087.54 337.527C1089.76 339.985 1092.92 341.188 1097.05 341.188C1101.08 341.188 1104.17 339.985 1106.26 337.527C1108.35 335.017 1109.4 331.435 1109.4 326.754V306.568H1112.64V325.708C1112.64 331.775 1111.3 336.377 1108.66 339.514C1106 342.652 1102.13 344.221 1097.05 344.221Z" fill="#6F4323"/>
<path d="M1127.06 309.287H1119.94V306.568H1127.06V292.762H1130.19V306.568H1138.46V309.287H1130.19V343.28H1127.06V309.287Z" fill="#6F4323"/>
<path d="M1148.27 306.568V313.889C1149.32 311.536 1150.7 309.575 1152.46 308.032C1154.26 306.437 1156.38 305.627 1158.84 305.627C1159.67 305.627 1160.43 305.731 1161.14 305.94C1161.9 306.097 1162.5 306.333 1162.92 306.673L1161.56 309.183C1161.14 309.052 1160.64 308.921 1160.09 308.764C1159.6 308.634 1159.05 308.555 1158.42 308.555C1156.38 308.555 1154.6 309.287 1153.08 310.752C1151.54 312.164 1150.36 314.099 1149.53 316.609C1148.69 319.119 1148.27 321.917 1148.27 324.976V343.28H1145.14V306.568H1148.27Z" fill="#6F4323"/>
<path d="M1169.82 298.933C1168.99 298.933 1168.28 298.671 1167.73 298.096C1167.16 297.469 1166.9 296.789 1166.9 296.004C1166.9 295.168 1167.16 294.488 1167.73 293.912C1168.36 293.363 1169.04 293.076 1169.82 293.076C1170.58 293.076 1171.24 293.363 1171.81 293.912C1172.44 294.488 1172.75 295.168 1172.75 296.004C1172.75 296.789 1172.44 297.469 1171.81 298.096C1171.24 298.671 1170.58 298.933 1169.82 298.933ZM1168.26 306.568H1171.39V343.28H1168.26V306.568Z" fill="#6F4323"/>
<path d="M1185.88 306.568V314.622C1187.6 311.641 1189.74 309.392 1192.26 307.928C1194.77 306.411 1197.51 305.627 1200.52 305.627C1204.91 305.627 1208.28 307.091 1210.66 310.02C1213.02 312.948 1214.22 317.236 1214.22 322.884V343.28H1211.08V323.198C1211.08 318.387 1210.19 314.726 1208.47 312.216C1206.71 309.706 1203.92 308.451 1200.1 308.451C1197.51 308.451 1195.13 309.157 1192.99 310.543C1190.82 311.876 1189.07 313.733 1187.76 316.086C1186.5 318.387 1185.88 321.002 1185.88 323.93V343.28H1182.74V306.568H1185.88Z" fill="#6F4323"/>
<path d="M1241.81 344.116C1238.18 344.116 1234.93 343.254 1232.08 341.502C1229.21 339.697 1226.98 337.318 1225.39 334.389C1223.77 331.409 1222.98 328.219 1222.98 324.872C1222.98 321.472 1223.77 318.282 1225.39 315.354C1226.98 312.425 1229.21 310.098 1232.08 308.346C1235.01 306.542 1238.28 305.627 1241.91 305.627C1245.47 305.627 1248.61 306.516 1251.33 308.242C1254.1 309.915 1256.27 312.373 1257.81 315.563V292.448H1260.95V343.28H1257.81V334.703C1256.27 337.632 1254.1 339.933 1251.33 341.606C1248.61 343.28 1245.42 344.116 1241.81 344.116ZM1242.02 341.292C1244.79 341.292 1247.41 340.665 1249.86 339.41C1252.37 338.102 1254.36 336.22 1255.83 333.762C1257.29 331.33 1258.02 328.428 1258.02 325.081C1258.02 322.231 1257.34 319.537 1256.03 317.027C1254.78 314.465 1252.92 312.399 1250.49 310.856C1248.03 309.34 1245.21 308.555 1242.02 308.555C1238.88 308.555 1236.08 309.34 1233.65 310.856C1231.27 312.399 1229.42 314.412 1228.11 316.923C1226.85 319.433 1226.23 322.126 1226.23 324.976C1226.23 327.905 1226.88 330.624 1228.21 333.134C1229.6 335.645 1231.48 337.632 1233.86 339.096C1236.29 340.56 1239.01 341.292 1242.02 341.292Z" fill="#6F4323"/>
<path d="M1289.51 344.221C1285.79 344.221 1282.5 343.332 1279.57 341.606C1276.69 339.88 1274.47 337.527 1272.88 334.599C1271.26 331.618 1270.47 328.402 1270.47 324.976C1270.47 321.577 1271.26 318.387 1272.88 315.458C1274.47 312.477 1276.69 310.098 1279.57 308.346C1282.5 306.542 1285.79 305.627 1289.51 305.627C1293.27 305.627 1296.57 306.542 1299.44 308.346C1302.37 310.098 1304.62 312.477 1306.24 315.458C1307.84 318.387 1308.65 321.577 1308.65 324.976C1308.65 328.402 1307.84 331.565 1306.24 334.494C1304.62 337.423 1302.37 339.802 1299.44 341.606C1296.57 343.332 1293.27 344.221 1289.51 344.221ZM1289.51 341.292C1292.57 341.292 1295.29 340.56 1297.66 339.096C1300.1 337.632 1301.98 335.697 1303.31 333.239C1304.62 330.729 1305.3 327.983 1305.3 324.976C1305.3 322.048 1304.59 319.328 1303.21 316.818C1301.87 314.308 1300.02 312.321 1297.66 310.856C1295.29 309.34 1292.57 308.555 1289.51 308.555C1286.5 308.555 1283.78 309.34 1281.35 310.856C1278.97 312.321 1277.09 314.308 1275.7 316.818C1274.37 319.328 1273.71 322.048 1273.71 324.976C1273.71 327.905 1274.37 330.624 1275.7 333.134C1277.01 335.644 1278.89 337.632 1281.35 339.096C1283.78 340.56 1286.5 341.292 1289.51 341.292Z" fill="#6F4323"/>
<path d="M1362.47 306.568H1365.92L1349.71 343.28H1348.56L1332.34 306.568H1335.8L1349.18 337.318L1362.47 306.568Z" fill="#6F4323"/>
<path d="M1374.15 298.933C1373.31 298.933 1372.61 298.671 1372.06 298.096C1371.48 297.469 1371.22 296.789 1371.22 296.004C1371.22 295.168 1371.48 294.488 1372.06 293.912C1372.68 293.363 1373.36 293.076 1374.15 293.076C1374.91 293.076 1375.56 293.363 1376.14 293.912C1376.76 294.488 1377.08 295.168 1377.08 296.004C1377.08 296.789 1376.76 297.469 1376.14 298.096C1375.56 298.671 1374.91 298.933 1374.15 298.933ZM1372.58 306.568H1375.72V343.28H1372.58V306.568Z" fill="#6F4323"/>
<path d="M1403.9 344.116C1400.27 344.116 1397.02 343.254 1394.17 341.502C1391.3 339.697 1389.08 337.318 1387.48 334.389C1385.86 331.409 1385.08 328.219 1385.08 324.872C1385.08 321.472 1385.86 318.282 1387.48 315.354C1389.08 312.425 1391.3 310.098 1394.17 308.346C1397.1 306.542 1400.37 305.627 1404.01 305.627C1407.56 305.627 1410.7 306.516 1413.42 308.242C1416.19 309.915 1418.36 312.373 1419.9 315.563V292.448H1423.04V343.28H1419.9V334.703C1418.36 337.632 1416.19 339.933 1413.42 341.606C1410.7 343.28 1407.51 344.116 1403.9 344.116ZM1404.11 341.292C1406.88 341.292 1409.5 340.665 1411.96 339.41C1414.47 338.102 1416.45 336.22 1417.92 333.762C1419.38 331.33 1420.11 328.428 1420.11 325.081C1420.11 322.231 1419.43 319.537 1418.13 317.027C1416.87 314.465 1415.01 312.399 1412.58 310.856C1410.12 309.34 1407.3 308.555 1404.11 308.555C1400.97 308.555 1398.18 309.34 1395.74 310.856C1393.36 312.399 1391.51 314.412 1390.2 316.923C1388.95 319.433 1388.32 322.126 1388.32 324.976C1388.32 327.905 1388.97 330.624 1390.3 333.134C1391.69 335.645 1393.57 337.632 1395.95 339.096C1398.38 340.56 1401.1 341.292 1404.11 341.292Z" fill="#6F4323"/>
<path d="M1451.39 344.116C1447.75 344.116 1444.51 343.253 1441.66 341.502C1438.78 339.697 1436.56 337.318 1434.97 334.389C1433.35 331.409 1432.56 328.218 1432.56 324.872C1432.56 321.472 1433.35 318.282 1434.97 315.354C1436.56 312.425 1438.78 310.098 1441.66 308.346C1444.59 306.542 1447.86 305.627 1451.49 305.627C1455.05 305.627 1458.19 306.516 1460.91 308.241C1463.68 309.915 1465.85 312.373 1467.39 315.563V306.568H1470.53V343.28H1467.39V334.703C1465.85 337.632 1463.68 339.933 1460.91 341.606C1458.19 343.28 1455 344.116 1451.39 344.116ZM1451.6 341.292C1454.37 341.292 1456.98 340.665 1459.44 339.41C1461.95 338.102 1463.94 336.22 1465.4 333.762C1466.87 331.33 1467.6 328.428 1467.6 325.081C1467.6 322.231 1466.92 319.537 1465.61 317.027C1464.36 314.465 1462.5 312.399 1460.07 310.856C1457.61 309.34 1454.79 308.555 1451.6 308.555C1448.46 308.555 1445.66 309.34 1443.23 310.856C1440.85 312.399 1438.99 314.412 1437.69 316.923C1436.43 319.433 1435.8 322.126 1435.8 324.976C1435.8 327.905 1436.46 330.624 1437.79 333.134C1439.18 335.644 1441.06 337.632 1443.44 339.096C1445.87 340.56 1448.59 341.292 1451.6 341.292Z" fill="#6F4323"/>
<path d="M1489.88 344.221C1487.63 344.221 1485.59 343.75 1483.71 342.861C1481.83 341.972 1480.21 340.717 1478.9 339.096L1480.89 336.9C1482.19 338.364 1483.55 339.462 1484.96 340.142C1486.43 340.848 1488 341.188 1489.67 341.188C1491.19 341.188 1492.55 340.926 1493.75 340.351C1494.93 339.802 1495.84 338.991 1496.47 337.945C1497.15 336.847 1497.52 335.592 1497.52 334.18C1497.52 333.134 1497.33 332.245 1496.99 331.461C1496.63 330.703 1496.05 329.944 1495.21 329.16C1494.38 328.402 1493.17 327.591 1491.66 326.754C1488.86 325.238 1486.74 323.983 1485.28 322.989C1483.81 321.943 1482.66 320.792 1481.83 319.537C1481.04 318.23 1480.68 316.661 1480.68 314.831C1480.68 313.027 1481.09 311.432 1481.93 310.02C1482.82 308.634 1484.02 307.562 1485.49 306.777C1487 306.019 1488.68 305.627 1490.51 305.627C1492.39 305.627 1494.09 306.019 1495.63 306.777C1497.23 307.483 1498.8 308.608 1500.34 310.124L1498.25 312.216C1497.04 310.961 1495.84 310.072 1494.59 309.497C1493.33 308.869 1491.97 308.555 1490.51 308.555C1489.1 308.555 1487.89 308.843 1486.85 309.392C1485.85 309.967 1485.07 310.726 1484.44 311.693C1483.87 312.608 1483.6 313.628 1483.6 314.726C1483.6 316.19 1484.05 317.498 1484.96 318.596C1485.85 319.642 1487.29 320.688 1489.25 321.734C1492.1 323.407 1494.27 324.767 1495.74 325.813C1497.25 326.859 1498.4 328.062 1499.19 329.369C1500.03 330.624 1500.44 332.167 1500.44 333.971C1500.44 335.801 1500.03 337.501 1499.19 339.096C1498.4 340.639 1497.2 341.894 1495.53 342.861C1493.91 343.75 1492.02 344.221 1489.88 344.221Z" fill="#6F4323"/>
<path d="M1512.06 344.221C1511.14 344.221 1510.38 343.907 1509.76 343.28C1509.13 342.6 1508.81 341.789 1508.81 340.874C1508.81 339.985 1509.13 339.175 1509.76 338.469C1510.44 337.789 1511.22 337.423 1512.06 337.423C1513.02 337.423 1513.83 337.789 1514.46 338.469C1515.14 339.096 1515.51 339.907 1515.51 340.874C1515.51 341.868 1515.14 342.652 1514.46 343.28C1513.83 343.907 1513.02 344.221 1512.06 344.221Z" fill="#6F4323"/>
</svg>
